G04 #@! TF.FileFunction,Soldermask,Bot*
%FSLAX46Y46*%
G04 Gerber Fmt 4.6, Leading zero omitted, Abs format (unit mm)*
G04 Created by KiCad (PCBNEW (2014-12-07 BZR 5316)-product) date 31/03/2015 20:39:07*
%MOMM*%
G01*
G04 APERTURE LIST*
%ADD10C,0.100000*%
%ADD11R,2.032000X2.032000*%
%ADD12O,2.032000X2.032000*%
%ADD13R,2.235200X2.235200*%
%ADD14R,2.032000X1.727200*%
%ADD15O,2.032000X1.727200*%
%ADD16R,1.727200X2.032000*%
%ADD17O,1.727200X2.032000*%
%ADD18C,0.762000*%
G04 APERTURE END LIST*
D10*
D11*
X94615000Y-46990000D03*
D12*
X92075000Y-46990000D03*
D11*
X92075000Y-83820000D03*
D12*
X92075000Y-81280000D03*
D13*
X130556000Y-50038000D03*
X130810000Y-59055000D03*
X130810000Y-67945000D03*
D14*
X92075000Y-57785000D03*
D15*
X92075000Y-55245000D03*
X92075000Y-52705000D03*
D14*
X92075000Y-65405000D03*
D15*
X92075000Y-62865000D03*
X92075000Y-60325000D03*
D16*
X104775000Y-46990000D03*
D17*
X102235000Y-46990000D03*
X99695000Y-46990000D03*
D16*
X112395000Y-46990000D03*
D17*
X109855000Y-46990000D03*
X107315000Y-46990000D03*
D14*
X126365000Y-47625000D03*
D15*
X126365000Y-50165000D03*
X126365000Y-52705000D03*
D14*
X126365000Y-56515000D03*
D15*
X126365000Y-59055000D03*
X126365000Y-61595000D03*
D14*
X126365000Y-65405000D03*
D15*
X126365000Y-67945000D03*
X126365000Y-70485000D03*
D16*
X110490000Y-83820000D03*
D17*
X113030000Y-83820000D03*
X115570000Y-83820000D03*
D16*
X118110000Y-83820000D03*
D17*
X120650000Y-83820000D03*
X123190000Y-83820000D03*
D16*
X125730000Y-83820000D03*
D17*
X128270000Y-83820000D03*
X130810000Y-83820000D03*
D18*
X98407700Y-50467500D03*
X100692700Y-59139100D03*
X106124100Y-59055000D03*
X118898300Y-75760200D03*
X104536400Y-55430300D03*
X100559700Y-57660900D03*
X108399900Y-80293800D03*
X111320300Y-71120300D03*
X101525900Y-61595000D03*
X110839300Y-56590200D03*
X128536700Y-72382800D03*
X127818100Y-81089300D03*
X132080000Y-81280000D03*
X119978800Y-71651600D03*
M02*
