%FSLAX46Y46*%
G04 Gerber Fmt 4.6, Leading zero omitted, Abs format (unit mm)*
G04 Created by KiCad (PCBNEW (2014-09-19 BZR 5142)-product) date 11/10/2014 22:22:43*
%MOMM*%
G01*
G04 APERTURE LIST*
%ADD10C,0.100000*%
%ADD11C,1.778000*%
%ADD12R,1.778000X1.778000*%
%ADD13R,2.032000X2.032000*%
%ADD14O,2.032000X2.032000*%
%ADD15R,2.235200X2.235200*%
%ADD16R,1.727200X2.032000*%
%ADD17O,1.727200X2.032000*%
%ADD18R,2.032000X1.727200*%
%ADD19O,2.032000X1.727200*%
%ADD20R,2.286000X1.778000*%
%ADD21O,2.286000X1.778000*%
%ADD22O,1.998980X2.999740*%
%ADD23O,2.999740X1.998980*%
%ADD24C,0.762000*%
%ADD25C,0.508000*%
%ADD26C,0.254000*%
G04 APERTURE END LIST*
D10*
D11*
X144145000Y-93980000D03*
X144145000Y-99060000D03*
X200025000Y-102870000D03*
D12*
X202565000Y-102870000D03*
D11*
X198120000Y-106045000D03*
D12*
X198120000Y-108585000D03*
D11*
X167640000Y-88900000D03*
X167640000Y-93980000D03*
X172720000Y-102235000D03*
X177800000Y-102235000D03*
X199390000Y-83185000D03*
D12*
X201930000Y-83185000D03*
D11*
X204470000Y-90170000D03*
D12*
X204470000Y-92710000D03*
D11*
X204470000Y-99060000D03*
D12*
X204470000Y-96520000D03*
D13*
X144145000Y-106045000D03*
D14*
X144145000Y-103505000D03*
D13*
X213360000Y-105410000D03*
D14*
X213360000Y-107950000D03*
D15*
X213360000Y-85725000D03*
X213360000Y-93345000D03*
X213360000Y-100965000D03*
D11*
X147955000Y-100330000D03*
X155575000Y-100330000D03*
X144145000Y-90805000D03*
X144145000Y-83185000D03*
X159385000Y-103505000D03*
X167005000Y-103505000D03*
X163830000Y-88900000D03*
X163830000Y-96520000D03*
X160655000Y-96520000D03*
X160655000Y-88900000D03*
X159385000Y-99695000D03*
X167005000Y-99695000D03*
X160020000Y-83185000D03*
X167640000Y-83185000D03*
X171450000Y-86995000D03*
X179070000Y-86995000D03*
X187325000Y-107950000D03*
X194945000Y-107950000D03*
X200660000Y-97790000D03*
X200660000Y-90170000D03*
X194945000Y-101600000D03*
X187325000Y-101600000D03*
X193040000Y-86995000D03*
X185420000Y-86995000D03*
X183515000Y-107950000D03*
X183515000Y-100330000D03*
X183515000Y-97790000D03*
X183515000Y-90170000D03*
X196215000Y-83185000D03*
X188595000Y-83185000D03*
X204470000Y-86995000D03*
X196850000Y-86995000D03*
X194945000Y-104775000D03*
X187325000Y-104775000D03*
D16*
X150495000Y-83185000D03*
D17*
X153035000Y-83185000D03*
X155575000Y-83185000D03*
D16*
X149225000Y-107950000D03*
D17*
X151765000Y-107950000D03*
X154305000Y-107950000D03*
D16*
X172085000Y-83185000D03*
D17*
X174625000Y-83185000D03*
X177165000Y-83185000D03*
D16*
X179705000Y-83185000D03*
D17*
X182245000Y-83185000D03*
X184785000Y-83185000D03*
D18*
X208915000Y-88265000D03*
D19*
X208915000Y-85725000D03*
X208915000Y-83185000D03*
D18*
X208915000Y-95885000D03*
D19*
X208915000Y-93345000D03*
X208915000Y-90805000D03*
D18*
X208915000Y-103505000D03*
D19*
X208915000Y-100965000D03*
X208915000Y-98425000D03*
D16*
X159385000Y-107950000D03*
D17*
X161925000Y-107950000D03*
X164465000Y-107950000D03*
D16*
X167005000Y-107950000D03*
D17*
X169545000Y-107950000D03*
X172085000Y-107950000D03*
D16*
X174625000Y-107950000D03*
D17*
X177165000Y-107950000D03*
X179705000Y-107950000D03*
D20*
X147955000Y-88265000D03*
D21*
X147955000Y-90805000D03*
X147955000Y-93345000D03*
X147955000Y-95885000D03*
X155575000Y-95885000D03*
X155575000Y-93345000D03*
X155575000Y-90805000D03*
X155575000Y-88265000D03*
D20*
X171450000Y-90170000D03*
D21*
X171450000Y-92710000D03*
X171450000Y-95250000D03*
X171450000Y-97790000D03*
X179070000Y-97790000D03*
X179070000Y-95250000D03*
X179070000Y-92710000D03*
X179070000Y-90170000D03*
D20*
X189230000Y-90170000D03*
D21*
X189230000Y-92710000D03*
X189230000Y-95250000D03*
X189230000Y-97790000D03*
X196850000Y-97790000D03*
X196850000Y-95250000D03*
X196850000Y-92710000D03*
X196850000Y-90170000D03*
D22*
X205105000Y-105410000D03*
D23*
X202565000Y-107950000D03*
X207645000Y-107950000D03*
D24*
X205105000Y-81280000D03*
X185420000Y-106680000D03*
X186055000Y-90805000D03*
X186055000Y-97790000D03*
D25*
X154305000Y-102235000D02*
X157480000Y-105410000D01*
X171450000Y-99695000D02*
X169545000Y-101600000D01*
X154305000Y-102235000D02*
X147955000Y-95885000D01*
X165735000Y-101600000D02*
X169545000Y-101600000D01*
X161925000Y-105410000D02*
X165735000Y-101600000D01*
X161290000Y-105410000D02*
X161925000Y-105410000D01*
X157480000Y-105410000D02*
X161290000Y-105410000D01*
X189230000Y-97790000D02*
X191135000Y-99695000D01*
X199390000Y-99695000D02*
X202565000Y-102870000D01*
X191135000Y-99695000D02*
X199390000Y-99695000D01*
X171450000Y-99695000D02*
X179070000Y-99695000D01*
X179070000Y-99695000D02*
X181610000Y-102235000D01*
X181610000Y-102235000D02*
X184150000Y-102235000D01*
X184150000Y-102235000D02*
X188595000Y-97790000D01*
X188595000Y-97790000D02*
X189230000Y-97790000D01*
X171450000Y-99695000D02*
X171450000Y-97790000D01*
X198120000Y-88900000D02*
X196850000Y-90170000D01*
X199390000Y-88900000D02*
X198120000Y-88900000D01*
X205105000Y-83185000D02*
X199390000Y-88900000D01*
X205105000Y-81280000D02*
X205105000Y-83185000D01*
X179070000Y-90170000D02*
X182880000Y-86360000D01*
X182880000Y-86360000D02*
X182880000Y-85090000D01*
X155575000Y-88265000D02*
X158750000Y-85090000D01*
X194945000Y-88265000D02*
X196850000Y-90170000D01*
X182880000Y-85090000D02*
X194945000Y-85090000D01*
X194945000Y-85090000D02*
X194945000Y-88265000D01*
X158750000Y-85090000D02*
X182880000Y-85090000D01*
X159385000Y-99695000D02*
X158115000Y-98425000D01*
X158115000Y-93345000D02*
X155575000Y-93345000D01*
X158115000Y-98425000D02*
X158115000Y-93345000D01*
X155575000Y-93345000D02*
X155829000Y-93345000D01*
X185420000Y-106680000D02*
X184150000Y-105410000D01*
X184150000Y-105410000D02*
X167640000Y-105410000D01*
X167640000Y-105410000D02*
X167005000Y-106045000D01*
X167005000Y-106045000D02*
X167005000Y-107950000D01*
X186055000Y-92710000D02*
X186055000Y-90805000D01*
X186055000Y-92710000D02*
X186055000Y-97790000D01*
X186055000Y-92710000D02*
X189230000Y-92710000D01*
D26*
G36*
X217120000Y-109457275D02*
X216705512Y-109180323D01*
X215900000Y-109020097D01*
X215112600Y-109176720D01*
X215112600Y-102208910D01*
X215112600Y-101956291D01*
X215112600Y-99721091D01*
X215112600Y-94588910D01*
X215112600Y-94336291D01*
X215112600Y-92101091D01*
X215112600Y-86968910D01*
X215112600Y-86716291D01*
X215112600Y-84481091D01*
X215015927Y-84247702D01*
X214837299Y-84069073D01*
X214603910Y-83972400D01*
X214351291Y-83972400D01*
X212116091Y-83972400D01*
X211882702Y-84069073D01*
X211704073Y-84247701D01*
X211607400Y-84481090D01*
X211607400Y-84733709D01*
X211607400Y-86968909D01*
X211704073Y-87202298D01*
X211882701Y-87380927D01*
X212116090Y-87477600D01*
X212368709Y-87477600D01*
X214603909Y-87477600D01*
X214837298Y-87380927D01*
X215015927Y-87202299D01*
X215112600Y-86968910D01*
X215112600Y-92101091D01*
X215015927Y-91867702D01*
X214837299Y-91689073D01*
X214603910Y-91592400D01*
X214351291Y-91592400D01*
X212116091Y-91592400D01*
X211882702Y-91689073D01*
X211704073Y-91867701D01*
X211607400Y-92101090D01*
X211607400Y-92353709D01*
X211607400Y-94588909D01*
X211704073Y-94822298D01*
X211882701Y-95000927D01*
X212116090Y-95097600D01*
X212368709Y-95097600D01*
X214603909Y-95097600D01*
X214837298Y-95000927D01*
X215015927Y-94822299D01*
X215112600Y-94588910D01*
X215112600Y-99721091D01*
X215015927Y-99487702D01*
X214837299Y-99309073D01*
X214603910Y-99212400D01*
X214351291Y-99212400D01*
X212116091Y-99212400D01*
X211882702Y-99309073D01*
X211704073Y-99487701D01*
X211607400Y-99721090D01*
X211607400Y-99973709D01*
X211607400Y-102208909D01*
X211704073Y-102442298D01*
X211882701Y-102620927D01*
X212116090Y-102717600D01*
X212368709Y-102717600D01*
X214603909Y-102717600D01*
X214837298Y-102620927D01*
X215015927Y-102442299D01*
X215112600Y-102208910D01*
X215112600Y-109176720D01*
X215094488Y-109180323D01*
X215011000Y-109236108D01*
X215011000Y-107982345D01*
X215011000Y-107917655D01*
X214885325Y-107285845D01*
X214684628Y-106985480D01*
X214735698Y-106964327D01*
X214914327Y-106785699D01*
X215011000Y-106552310D01*
X215011000Y-106299691D01*
X215011000Y-104267691D01*
X214914327Y-104034302D01*
X214735699Y-103855673D01*
X214502310Y-103759000D01*
X214249691Y-103759000D01*
X212217691Y-103759000D01*
X211984302Y-103855673D01*
X211805673Y-104034301D01*
X211709000Y-104267690D01*
X211709000Y-104520309D01*
X211709000Y-106552309D01*
X211805673Y-106785698D01*
X211984301Y-106964327D01*
X212035371Y-106985481D01*
X211834675Y-107285845D01*
X211709000Y-107917655D01*
X211709000Y-107982345D01*
X211834675Y-108614155D01*
X212192567Y-109149778D01*
X212728190Y-109507670D01*
X213360000Y-109633345D01*
X213991810Y-109507670D01*
X214527433Y-109149778D01*
X214885325Y-108614155D01*
X215011000Y-107982345D01*
X215011000Y-109236108D01*
X214411609Y-109636609D01*
X213955323Y-110319488D01*
X213795097Y-111125000D01*
X213955323Y-111930512D01*
X214232275Y-112345000D01*
X210598345Y-112345000D01*
X210598345Y-100965000D01*
X210484271Y-100391511D01*
X210159415Y-99905330D01*
X209844634Y-99695000D01*
X210159415Y-99484670D01*
X210484271Y-98998489D01*
X210598345Y-98425000D01*
X210598345Y-93345000D01*
X210484271Y-92771511D01*
X210159415Y-92285330D01*
X209844634Y-92075000D01*
X210159415Y-91864670D01*
X210484271Y-91378489D01*
X210598345Y-90805000D01*
X210598345Y-85725000D01*
X210484271Y-85151511D01*
X210159415Y-84665330D01*
X209844634Y-84455000D01*
X210159415Y-84244670D01*
X210484271Y-83758489D01*
X210598345Y-83185000D01*
X210484271Y-82611511D01*
X210159415Y-82125330D01*
X209673234Y-81800474D01*
X209099745Y-81686400D01*
X208730255Y-81686400D01*
X208156766Y-81800474D01*
X207670585Y-82125330D01*
X207345729Y-82611511D01*
X207231655Y-83185000D01*
X207345729Y-83758489D01*
X207670585Y-84244670D01*
X207985365Y-84455000D01*
X207670585Y-84665330D01*
X207345729Y-85151511D01*
X207231655Y-85725000D01*
X207345729Y-86298489D01*
X207670585Y-86784670D01*
X207692779Y-86799499D01*
X207539301Y-86863073D01*
X207360673Y-87041702D01*
X207264000Y-87275091D01*
X207264000Y-87979250D01*
X207422750Y-88138000D01*
X208788000Y-88138000D01*
X208788000Y-88118000D01*
X209042000Y-88118000D01*
X209042000Y-88138000D01*
X210407250Y-88138000D01*
X210566000Y-87979250D01*
X210566000Y-87275091D01*
X210469327Y-87041702D01*
X210290699Y-86863073D01*
X210137220Y-86799499D01*
X210159415Y-86784670D01*
X210484271Y-86298489D01*
X210598345Y-85725000D01*
X210598345Y-90805000D01*
X210484271Y-90231511D01*
X210159415Y-89745330D01*
X210137220Y-89730500D01*
X210290699Y-89666927D01*
X210469327Y-89488298D01*
X210566000Y-89254909D01*
X210566000Y-88550750D01*
X210407250Y-88392000D01*
X209042000Y-88392000D01*
X209042000Y-88412000D01*
X208788000Y-88412000D01*
X208788000Y-88392000D01*
X207422750Y-88392000D01*
X207264000Y-88550750D01*
X207264000Y-89254909D01*
X207360673Y-89488298D01*
X207539301Y-89666927D01*
X207692779Y-89730500D01*
X207670585Y-89745330D01*
X207345729Y-90231511D01*
X207231655Y-90805000D01*
X207345729Y-91378489D01*
X207670585Y-91864670D01*
X207985365Y-92075000D01*
X207670585Y-92285330D01*
X207345729Y-92771511D01*
X207231655Y-93345000D01*
X207345729Y-93918489D01*
X207670585Y-94404670D01*
X207692779Y-94419499D01*
X207539301Y-94483073D01*
X207360673Y-94661702D01*
X207264000Y-94895091D01*
X207264000Y-95599250D01*
X207422750Y-95758000D01*
X208788000Y-95758000D01*
X208788000Y-95738000D01*
X209042000Y-95738000D01*
X209042000Y-95758000D01*
X210407250Y-95758000D01*
X210566000Y-95599250D01*
X210566000Y-94895091D01*
X210469327Y-94661702D01*
X210290699Y-94483073D01*
X210137220Y-94419499D01*
X210159415Y-94404670D01*
X210484271Y-93918489D01*
X210598345Y-93345000D01*
X210598345Y-98425000D01*
X210484271Y-97851511D01*
X210159415Y-97365330D01*
X210137220Y-97350500D01*
X210290699Y-97286927D01*
X210469327Y-97108298D01*
X210566000Y-96874909D01*
X210566000Y-96170750D01*
X210407250Y-96012000D01*
X209042000Y-96012000D01*
X209042000Y-96032000D01*
X208788000Y-96032000D01*
X208788000Y-96012000D01*
X207422750Y-96012000D01*
X207264000Y-96170750D01*
X207264000Y-96874909D01*
X207360673Y-97108298D01*
X207539301Y-97286927D01*
X207692779Y-97350500D01*
X207670585Y-97365330D01*
X207345729Y-97851511D01*
X207231655Y-98425000D01*
X207345729Y-98998489D01*
X207670585Y-99484670D01*
X207985365Y-99695000D01*
X207670585Y-99905330D01*
X207345729Y-100391511D01*
X207231655Y-100965000D01*
X207345729Y-101538489D01*
X207670585Y-102024670D01*
X207692779Y-102039499D01*
X207539301Y-102103073D01*
X207360673Y-102281702D01*
X207264000Y-102515091D01*
X207264000Y-103219250D01*
X207422750Y-103378000D01*
X208788000Y-103378000D01*
X208788000Y-103358000D01*
X209042000Y-103358000D01*
X209042000Y-103378000D01*
X210407250Y-103378000D01*
X210566000Y-103219250D01*
X210566000Y-102515091D01*
X210469327Y-102281702D01*
X210290699Y-102103073D01*
X210137220Y-102039499D01*
X210159415Y-102024670D01*
X210484271Y-101538489D01*
X210598345Y-100965000D01*
X210598345Y-112345000D01*
X210566000Y-112345000D01*
X210566000Y-104494909D01*
X210566000Y-103790750D01*
X210407250Y-103632000D01*
X209042000Y-103632000D01*
X209042000Y-104844850D01*
X209200750Y-105003600D01*
X209804691Y-105003600D01*
X210057310Y-105003600D01*
X210290699Y-104906927D01*
X210469327Y-104728298D01*
X210566000Y-104494909D01*
X210566000Y-112345000D01*
X209821695Y-112345000D01*
X209821695Y-107950000D01*
X209697277Y-107324508D01*
X209342964Y-106794241D01*
X208812697Y-106439928D01*
X208788000Y-106435015D01*
X208788000Y-104844850D01*
X208788000Y-103632000D01*
X207422750Y-103632000D01*
X207264000Y-103790750D01*
X207264000Y-104494909D01*
X207360673Y-104728298D01*
X207539301Y-104906927D01*
X207772690Y-105003600D01*
X208025309Y-105003600D01*
X208629250Y-105003600D01*
X208788000Y-104844850D01*
X208788000Y-106435015D01*
X208187205Y-106315510D01*
X207102795Y-106315510D01*
X206649280Y-106405719D01*
X206739490Y-105952205D01*
X206739490Y-104867795D01*
X206615072Y-104242303D01*
X206260759Y-103712036D01*
X206121176Y-103618769D01*
X206121176Y-81078792D01*
X205966825Y-80705234D01*
X205681269Y-80419179D01*
X205307982Y-80264176D01*
X204903792Y-80263824D01*
X204530234Y-80418175D01*
X204244179Y-80703731D01*
X204089176Y-81077018D01*
X204088824Y-81481208D01*
X204216000Y-81788997D01*
X204216000Y-82816764D01*
X203454000Y-83578764D01*
X203454000Y-82169691D01*
X203357327Y-81936302D01*
X203178699Y-81757673D01*
X202945310Y-81661000D01*
X202692691Y-81661000D01*
X200914691Y-81661000D01*
X200681302Y-81757673D01*
X200502673Y-81936301D01*
X200442317Y-82082011D01*
X200254404Y-81893769D01*
X199694472Y-81661265D01*
X199088188Y-81660736D01*
X198527851Y-81892262D01*
X198098769Y-82320596D01*
X197866265Y-82880528D01*
X197865736Y-83486812D01*
X198097262Y-84047149D01*
X198525596Y-84476231D01*
X199085528Y-84708735D01*
X199691812Y-84709264D01*
X200252149Y-84477738D01*
X200442292Y-84287926D01*
X200502673Y-84433698D01*
X200681301Y-84612327D01*
X200914690Y-84709000D01*
X201167309Y-84709000D01*
X202323764Y-84709000D01*
X199021764Y-88011000D01*
X198120000Y-88011000D01*
X197956863Y-88043449D01*
X198141231Y-87859404D01*
X198373735Y-87299472D01*
X198374264Y-86693188D01*
X198142738Y-86132851D01*
X197714404Y-85703769D01*
X197154472Y-85471265D01*
X196548188Y-85470736D01*
X195987851Y-85702262D01*
X195834000Y-85855844D01*
X195834000Y-85090000D01*
X195766329Y-84749794D01*
X195672988Y-84610099D01*
X195910528Y-84708735D01*
X196516812Y-84709264D01*
X197077149Y-84477738D01*
X197506231Y-84049404D01*
X197738735Y-83489472D01*
X197739264Y-82883188D01*
X197507738Y-82322851D01*
X197079404Y-81893769D01*
X196519472Y-81661265D01*
X195913188Y-81660736D01*
X195352851Y-81892262D01*
X194923769Y-82320596D01*
X194691265Y-82880528D01*
X194690736Y-83486812D01*
X194922262Y-84047149D01*
X195108263Y-84233474D01*
X194945000Y-84201000D01*
X189734370Y-84201000D01*
X189886231Y-84049404D01*
X190118735Y-83489472D01*
X190119264Y-82883188D01*
X189887738Y-82322851D01*
X189459404Y-81893769D01*
X188899472Y-81661265D01*
X188293188Y-81660736D01*
X187732851Y-81892262D01*
X187303769Y-82320596D01*
X187071265Y-82880528D01*
X187070736Y-83486812D01*
X187302262Y-84047149D01*
X187455844Y-84201000D01*
X185997292Y-84201000D01*
X186169526Y-83943234D01*
X186283600Y-83369745D01*
X186283600Y-83000255D01*
X186169526Y-82426766D01*
X185844670Y-81940585D01*
X185358489Y-81615729D01*
X184785000Y-81501655D01*
X184211511Y-81615729D01*
X183725330Y-81940585D01*
X183515000Y-82255365D01*
X183304670Y-81940585D01*
X182818489Y-81615729D01*
X182245000Y-81501655D01*
X181671511Y-81615729D01*
X181185330Y-81940585D01*
X181170499Y-81962780D01*
X181106927Y-81809302D01*
X180928299Y-81630673D01*
X180694910Y-81534000D01*
X180442291Y-81534000D01*
X178715091Y-81534000D01*
X178481702Y-81630673D01*
X178303073Y-81809301D01*
X178239499Y-81962779D01*
X178224670Y-81940585D01*
X177738489Y-81615729D01*
X177165000Y-81501655D01*
X176591511Y-81615729D01*
X176105330Y-81940585D01*
X175895000Y-82255365D01*
X175684670Y-81940585D01*
X175198489Y-81615729D01*
X174625000Y-81501655D01*
X174051511Y-81615729D01*
X173565330Y-81940585D01*
X173550499Y-81962780D01*
X173486927Y-81809302D01*
X173308299Y-81630673D01*
X173074910Y-81534000D01*
X172822291Y-81534000D01*
X171095091Y-81534000D01*
X170861702Y-81630673D01*
X170683073Y-81809301D01*
X170586400Y-82042690D01*
X170586400Y-82295309D01*
X170586400Y-84201000D01*
X168779370Y-84201000D01*
X168931231Y-84049404D01*
X169163735Y-83489472D01*
X169164264Y-82883188D01*
X168932738Y-82322851D01*
X168504404Y-81893769D01*
X167944472Y-81661265D01*
X167338188Y-81660736D01*
X166777851Y-81892262D01*
X166348769Y-82320596D01*
X166116265Y-82880528D01*
X166115736Y-83486812D01*
X166347262Y-84047149D01*
X166500844Y-84201000D01*
X161159370Y-84201000D01*
X161311231Y-84049404D01*
X161543735Y-83489472D01*
X161544264Y-82883188D01*
X161312738Y-82322851D01*
X160884404Y-81893769D01*
X160324472Y-81661265D01*
X159718188Y-81660736D01*
X159157851Y-81892262D01*
X158728769Y-82320596D01*
X158496265Y-82880528D01*
X158495736Y-83486812D01*
X158727262Y-84047149D01*
X158880844Y-84201000D01*
X158750000Y-84201000D01*
X158409794Y-84268671D01*
X158121382Y-84461382D01*
X157073600Y-85509164D01*
X157073600Y-83369745D01*
X157073600Y-83000255D01*
X156959526Y-82426766D01*
X156634670Y-81940585D01*
X156148489Y-81615729D01*
X155575000Y-81501655D01*
X155001511Y-81615729D01*
X154515330Y-81940585D01*
X154305000Y-82255365D01*
X154094670Y-81940585D01*
X153608489Y-81615729D01*
X153035000Y-81501655D01*
X152461511Y-81615729D01*
X151975330Y-81940585D01*
X151960499Y-81962780D01*
X151896927Y-81809302D01*
X151718299Y-81630673D01*
X151484910Y-81534000D01*
X151232291Y-81534000D01*
X149505091Y-81534000D01*
X149271702Y-81630673D01*
X149093073Y-81809301D01*
X148996400Y-82042690D01*
X148996400Y-82295309D01*
X148996400Y-84327309D01*
X149093073Y-84560698D01*
X149271701Y-84739327D01*
X149505090Y-84836000D01*
X149757709Y-84836000D01*
X151484909Y-84836000D01*
X151718298Y-84739327D01*
X151896927Y-84560699D01*
X151960500Y-84407220D01*
X151975330Y-84429415D01*
X152461511Y-84754271D01*
X153035000Y-84868345D01*
X153608489Y-84754271D01*
X154094670Y-84429415D01*
X154305000Y-84114634D01*
X154515330Y-84429415D01*
X155001511Y-84754271D01*
X155575000Y-84868345D01*
X156148489Y-84754271D01*
X156634670Y-84429415D01*
X156959526Y-83943234D01*
X157073600Y-83369745D01*
X157073600Y-85509164D01*
X155841764Y-86741000D01*
X155286167Y-86741000D01*
X154702957Y-86857008D01*
X154208536Y-87187369D01*
X153878175Y-87681790D01*
X153762167Y-88265000D01*
X153878175Y-88848210D01*
X154208536Y-89342631D01*
X154496437Y-89535000D01*
X154208536Y-89727369D01*
X153878175Y-90221790D01*
X153762167Y-90805000D01*
X153878175Y-91388210D01*
X154208536Y-91882631D01*
X154496437Y-92075000D01*
X154208536Y-92267369D01*
X153878175Y-92761790D01*
X153762167Y-93345000D01*
X153878175Y-93928210D01*
X154208536Y-94422631D01*
X154496437Y-94615000D01*
X154208536Y-94807369D01*
X153878175Y-95301790D01*
X153762167Y-95885000D01*
X153878175Y-96468210D01*
X154208536Y-96962631D01*
X154702957Y-97292992D01*
X155286167Y-97409000D01*
X155863833Y-97409000D01*
X156447043Y-97292992D01*
X156941464Y-96962631D01*
X157226000Y-96536792D01*
X157226000Y-98425000D01*
X157293671Y-98765206D01*
X157486382Y-99053618D01*
X157861231Y-99428467D01*
X157860736Y-99996812D01*
X158092262Y-100557149D01*
X158520596Y-100986231D01*
X159080528Y-101218735D01*
X159686812Y-101219264D01*
X160247149Y-100987738D01*
X160676231Y-100559404D01*
X160908735Y-99999472D01*
X160909264Y-99393188D01*
X160677738Y-98832851D01*
X160249404Y-98403769D01*
X159689472Y-98171265D01*
X159118002Y-98170766D01*
X159004000Y-98056764D01*
X159004000Y-93345000D01*
X158936329Y-93004794D01*
X158743618Y-92716382D01*
X158455206Y-92523671D01*
X158115000Y-92456000D01*
X157067502Y-92456000D01*
X156941464Y-92267369D01*
X156653562Y-92075000D01*
X156941464Y-91882631D01*
X157271825Y-91388210D01*
X157387833Y-90805000D01*
X157271825Y-90221790D01*
X156941464Y-89727369D01*
X156653562Y-89535000D01*
X156941464Y-89342631D01*
X157271825Y-88848210D01*
X157387833Y-88265000D01*
X157295653Y-87801582D01*
X159118236Y-85979000D01*
X170310629Y-85979000D01*
X170158769Y-86130596D01*
X169926265Y-86690528D01*
X169925736Y-87296812D01*
X170157262Y-87857149D01*
X170585596Y-88286231D01*
X171145528Y-88518735D01*
X171751812Y-88519264D01*
X172312149Y-88287738D01*
X172741231Y-87859404D01*
X172973735Y-87299472D01*
X172974264Y-86693188D01*
X172742738Y-86132851D01*
X172589155Y-85979000D01*
X177930629Y-85979000D01*
X177778769Y-86130596D01*
X177546265Y-86690528D01*
X177545736Y-87296812D01*
X177777262Y-87857149D01*
X178205596Y-88286231D01*
X178765528Y-88518735D01*
X179371812Y-88519264D01*
X179528060Y-88454703D01*
X179336764Y-88646000D01*
X178781167Y-88646000D01*
X178197957Y-88762008D01*
X177703536Y-89092369D01*
X177373175Y-89586790D01*
X177257167Y-90170000D01*
X177373175Y-90753210D01*
X177703536Y-91247631D01*
X177991437Y-91440000D01*
X177703536Y-91632369D01*
X177373175Y-92126790D01*
X177257167Y-92710000D01*
X177373175Y-93293210D01*
X177703536Y-93787631D01*
X177997794Y-93984247D01*
X177648567Y-94262171D01*
X177359407Y-94784122D01*
X177335866Y-94886987D01*
X177456670Y-95123000D01*
X178943000Y-95123000D01*
X178943000Y-95103000D01*
X179197000Y-95103000D01*
X179197000Y-95123000D01*
X180683330Y-95123000D01*
X180804134Y-94886987D01*
X180780593Y-94784122D01*
X180491433Y-94262171D01*
X180142205Y-93984247D01*
X180436464Y-93787631D01*
X180766825Y-93293210D01*
X180882833Y-92710000D01*
X180766825Y-92126790D01*
X180436464Y-91632369D01*
X180148562Y-91440000D01*
X180436464Y-91247631D01*
X180766825Y-90753210D01*
X180882833Y-90170000D01*
X180790653Y-89706582D01*
X183508618Y-86988618D01*
X183701329Y-86700206D01*
X183701330Y-86700205D01*
X183769000Y-86360000D01*
X183769000Y-85979000D01*
X184280629Y-85979000D01*
X184128769Y-86130596D01*
X183896265Y-86690528D01*
X183895736Y-87296812D01*
X184127262Y-87857149D01*
X184555596Y-88286231D01*
X185115528Y-88518735D01*
X185721812Y-88519264D01*
X186282149Y-88287738D01*
X186711231Y-87859404D01*
X186943735Y-87299472D01*
X186944264Y-86693188D01*
X186712738Y-86132851D01*
X186559155Y-85979000D01*
X191900629Y-85979000D01*
X191748769Y-86130596D01*
X191516265Y-86690528D01*
X191515736Y-87296812D01*
X191747262Y-87857149D01*
X192175596Y-88286231D01*
X192735528Y-88518735D01*
X193341812Y-88519264D01*
X193902149Y-88287738D01*
X194056000Y-88134155D01*
X194056000Y-88265000D01*
X194123671Y-88605206D01*
X194316382Y-88893618D01*
X195129346Y-89706582D01*
X195037167Y-90170000D01*
X195153175Y-90753210D01*
X195483536Y-91247631D01*
X195771437Y-91440000D01*
X195483536Y-91632369D01*
X195153175Y-92126790D01*
X195037167Y-92710000D01*
X195153175Y-93293210D01*
X195483536Y-93787631D01*
X195777794Y-93984247D01*
X195428567Y-94262171D01*
X195139407Y-94784122D01*
X195115866Y-94886987D01*
X195236670Y-95123000D01*
X196723000Y-95123000D01*
X196723000Y-95103000D01*
X196977000Y-95103000D01*
X196977000Y-95123000D01*
X198463330Y-95123000D01*
X198584134Y-94886987D01*
X198560593Y-94784122D01*
X198271433Y-94262171D01*
X197922205Y-93984247D01*
X198216464Y-93787631D01*
X198546825Y-93293210D01*
X198662833Y-92710000D01*
X198546825Y-92126790D01*
X198216464Y-91632369D01*
X197928562Y-91440000D01*
X198216464Y-91247631D01*
X198546825Y-90753210D01*
X198662833Y-90170000D01*
X198587047Y-89789000D01*
X199168042Y-89789000D01*
X199136265Y-89865528D01*
X199135736Y-90471812D01*
X199367262Y-91032149D01*
X199795596Y-91461231D01*
X200355528Y-91693735D01*
X200961812Y-91694264D01*
X201522149Y-91462738D01*
X201951231Y-91034404D01*
X202183735Y-90474472D01*
X202184264Y-89868188D01*
X201952738Y-89307851D01*
X201524404Y-88878769D01*
X200964472Y-88646265D01*
X200901026Y-88646209D01*
X203009858Y-86537377D01*
X202946265Y-86690528D01*
X202945736Y-87296812D01*
X203177262Y-87857149D01*
X203605596Y-88286231D01*
X204165528Y-88518735D01*
X204771812Y-88519264D01*
X205332149Y-88287738D01*
X205761231Y-87859404D01*
X205993735Y-87299472D01*
X205994264Y-86693188D01*
X205762738Y-86132851D01*
X205334404Y-85703769D01*
X204774472Y-85471265D01*
X204168188Y-85470736D01*
X204011939Y-85535296D01*
X205733618Y-83813618D01*
X205926329Y-83525206D01*
X205926330Y-83525205D01*
X205994000Y-83185000D01*
X205994000Y-81788406D01*
X206120824Y-81482982D01*
X206121176Y-81078792D01*
X206121176Y-103618769D01*
X205994264Y-103533969D01*
X205994264Y-98758188D01*
X205994264Y-89868188D01*
X205762738Y-89307851D01*
X205334404Y-88878769D01*
X204774472Y-88646265D01*
X204168188Y-88645736D01*
X203607851Y-88877262D01*
X203178769Y-89305596D01*
X202946265Y-89865528D01*
X202945736Y-90471812D01*
X203177262Y-91032149D01*
X203367073Y-91222292D01*
X203221302Y-91282673D01*
X203042673Y-91461301D01*
X202946000Y-91694690D01*
X202946000Y-91947309D01*
X202946000Y-93725309D01*
X203042673Y-93958698D01*
X203221301Y-94137327D01*
X203454690Y-94234000D01*
X203707309Y-94234000D01*
X205485309Y-94234000D01*
X205718698Y-94137327D01*
X205897327Y-93958699D01*
X205994000Y-93725310D01*
X205994000Y-93472691D01*
X205994000Y-91694691D01*
X205897327Y-91461302D01*
X205718699Y-91282673D01*
X205572988Y-91222317D01*
X205761231Y-91034404D01*
X205993735Y-90474472D01*
X205994264Y-89868188D01*
X205994264Y-98758188D01*
X205762738Y-98197851D01*
X205572926Y-98007707D01*
X205718698Y-97947327D01*
X205897327Y-97768699D01*
X205994000Y-97535310D01*
X205994000Y-97282691D01*
X205994000Y-95504691D01*
X205897327Y-95271302D01*
X205718699Y-95092673D01*
X205485310Y-94996000D01*
X205232691Y-94996000D01*
X203454691Y-94996000D01*
X203221302Y-95092673D01*
X203042673Y-95271301D01*
X202946000Y-95504690D01*
X202946000Y-95757309D01*
X202946000Y-97535309D01*
X203042673Y-97768698D01*
X203221301Y-97947327D01*
X203367011Y-98007682D01*
X203178769Y-98195596D01*
X202946265Y-98755528D01*
X202945736Y-99361812D01*
X203177262Y-99922149D01*
X203605596Y-100351231D01*
X204165528Y-100583735D01*
X204771812Y-100584264D01*
X205332149Y-100352738D01*
X205761231Y-99924404D01*
X205993735Y-99364472D01*
X205994264Y-98758188D01*
X205994264Y-103533969D01*
X205730492Y-103357723D01*
X205105000Y-103233305D01*
X204479508Y-103357723D01*
X204089000Y-103618652D01*
X204089000Y-101854691D01*
X203992327Y-101621302D01*
X203813699Y-101442673D01*
X203580310Y-101346000D01*
X203327691Y-101346000D01*
X202298236Y-101346000D01*
X200202377Y-99250141D01*
X200355528Y-99313735D01*
X200961812Y-99314264D01*
X201522149Y-99082738D01*
X201951231Y-98654404D01*
X202183735Y-98094472D01*
X202184264Y-97488188D01*
X201952738Y-96927851D01*
X201524404Y-96498769D01*
X200964472Y-96266265D01*
X200358188Y-96265736D01*
X199797851Y-96497262D01*
X199368769Y-96925596D01*
X199136265Y-97485528D01*
X199135736Y-98091812D01*
X199367262Y-98652149D01*
X199553263Y-98838474D01*
X199390000Y-98806000D01*
X198257644Y-98806000D01*
X198546825Y-98373210D01*
X198662833Y-97790000D01*
X198546825Y-97206790D01*
X198216464Y-96712369D01*
X197922205Y-96515752D01*
X198271433Y-96237829D01*
X198560593Y-95715878D01*
X198584134Y-95613013D01*
X198463330Y-95377000D01*
X196977000Y-95377000D01*
X196977000Y-95397000D01*
X196723000Y-95397000D01*
X196723000Y-95377000D01*
X195236670Y-95377000D01*
X195115866Y-95613013D01*
X195139407Y-95715878D01*
X195428567Y-96237829D01*
X195777794Y-96515752D01*
X195483536Y-96712369D01*
X195153175Y-97206790D01*
X195037167Y-97790000D01*
X195153175Y-98373210D01*
X195442355Y-98806000D01*
X191503236Y-98806000D01*
X190950653Y-98253417D01*
X191042833Y-97790000D01*
X190926825Y-97206790D01*
X190596464Y-96712369D01*
X190308562Y-96520000D01*
X190596464Y-96327631D01*
X190926825Y-95833210D01*
X191042833Y-95250000D01*
X190926825Y-94666790D01*
X190596464Y-94172369D01*
X190308562Y-93980000D01*
X190596464Y-93787631D01*
X190926825Y-93293210D01*
X191042833Y-92710000D01*
X190926825Y-92126790D01*
X190607657Y-91649120D01*
X190732698Y-91597327D01*
X190911327Y-91418699D01*
X191008000Y-91185310D01*
X191008000Y-90932691D01*
X191008000Y-89154691D01*
X190911327Y-88921302D01*
X190732699Y-88742673D01*
X190499310Y-88646000D01*
X190246691Y-88646000D01*
X187960691Y-88646000D01*
X187727302Y-88742673D01*
X187548673Y-88921301D01*
X187452000Y-89154690D01*
X187452000Y-89407309D01*
X187452000Y-91185309D01*
X187548673Y-91418698D01*
X187727301Y-91597327D01*
X187852342Y-91649121D01*
X187737497Y-91821000D01*
X186944000Y-91821000D01*
X186944000Y-91313406D01*
X187070824Y-91007982D01*
X187071176Y-90603792D01*
X186916825Y-90230234D01*
X186631269Y-89944179D01*
X186257982Y-89789176D01*
X185853792Y-89788824D01*
X185480234Y-89943175D01*
X185194179Y-90228731D01*
X185039264Y-90601806D01*
X185039264Y-89868188D01*
X184807738Y-89307851D01*
X184379404Y-88878769D01*
X183819472Y-88646265D01*
X183213188Y-88645736D01*
X182652851Y-88877262D01*
X182223769Y-89305596D01*
X181991265Y-89865528D01*
X181990736Y-90471812D01*
X182222262Y-91032149D01*
X182650596Y-91461231D01*
X183210528Y-91693735D01*
X183816812Y-91694264D01*
X184377149Y-91462738D01*
X184806231Y-91034404D01*
X185038735Y-90474472D01*
X185039264Y-89868188D01*
X185039264Y-90601806D01*
X185039176Y-90602018D01*
X185038824Y-91006208D01*
X185166000Y-91313997D01*
X185166000Y-92710000D01*
X185166000Y-97281593D01*
X185039177Y-97587013D01*
X185039264Y-97488188D01*
X184807738Y-96927851D01*
X184379404Y-96498769D01*
X183819472Y-96266265D01*
X183213188Y-96265736D01*
X182652851Y-96497262D01*
X182223769Y-96925596D01*
X181991265Y-97485528D01*
X181990736Y-98091812D01*
X182222262Y-98652149D01*
X182629737Y-99060335D01*
X182223769Y-99465596D01*
X181991265Y-100025528D01*
X181990736Y-100631812D01*
X182222262Y-101192149D01*
X182375844Y-101346000D01*
X181978236Y-101346000D01*
X179848779Y-99216543D01*
X179942043Y-99197992D01*
X180436464Y-98867631D01*
X180766825Y-98373210D01*
X180882833Y-97790000D01*
X180766825Y-97206790D01*
X180436464Y-96712369D01*
X180142205Y-96515752D01*
X180491433Y-96237829D01*
X180780593Y-95715878D01*
X180804134Y-95613013D01*
X180683330Y-95377000D01*
X179197000Y-95377000D01*
X179197000Y-95397000D01*
X178943000Y-95397000D01*
X178943000Y-95377000D01*
X177456670Y-95377000D01*
X177335866Y-95613013D01*
X177359407Y-95715878D01*
X177648567Y-96237829D01*
X177997794Y-96515752D01*
X177703536Y-96712369D01*
X177373175Y-97206790D01*
X177257167Y-97790000D01*
X177373175Y-98373210D01*
X177662355Y-98806000D01*
X172857644Y-98806000D01*
X173146825Y-98373210D01*
X173262833Y-97790000D01*
X173146825Y-97206790D01*
X172816464Y-96712369D01*
X172528562Y-96520000D01*
X172816464Y-96327631D01*
X173146825Y-95833210D01*
X173262833Y-95250000D01*
X173228000Y-95074883D01*
X173228000Y-91185310D01*
X173228000Y-90932691D01*
X173228000Y-89154691D01*
X173131327Y-88921302D01*
X172952699Y-88742673D01*
X172719310Y-88646000D01*
X172466691Y-88646000D01*
X170180691Y-88646000D01*
X169947302Y-88742673D01*
X169768673Y-88921301D01*
X169672000Y-89154690D01*
X169672000Y-89407309D01*
X169672000Y-91185309D01*
X169768673Y-91418698D01*
X169947301Y-91597327D01*
X170103922Y-91662201D01*
X170028567Y-91722171D01*
X169739407Y-92244122D01*
X169715866Y-92346987D01*
X169836670Y-92583000D01*
X171323000Y-92583000D01*
X171323000Y-92563000D01*
X171577000Y-92563000D01*
X171577000Y-92583000D01*
X173063330Y-92583000D01*
X173184134Y-92346987D01*
X173160593Y-92244122D01*
X172871433Y-91722171D01*
X172796077Y-91662201D01*
X172952698Y-91597327D01*
X173131327Y-91418699D01*
X173228000Y-91185310D01*
X173228000Y-95074883D01*
X173146825Y-94666790D01*
X172816464Y-94172369D01*
X172522205Y-93975752D01*
X172871433Y-93697829D01*
X173160593Y-93175878D01*
X173184134Y-93073013D01*
X173063330Y-92837000D01*
X171577000Y-92837000D01*
X171577000Y-92857000D01*
X171323000Y-92857000D01*
X171323000Y-92837000D01*
X169836670Y-92837000D01*
X169715866Y-93073013D01*
X169739407Y-93175878D01*
X170028567Y-93697829D01*
X170377794Y-93975752D01*
X170083536Y-94172369D01*
X169753175Y-94666790D01*
X169637167Y-95250000D01*
X169753175Y-95833210D01*
X170083536Y-96327631D01*
X170371437Y-96520000D01*
X170083536Y-96712369D01*
X169753175Y-97206790D01*
X169637167Y-97790000D01*
X169753175Y-98373210D01*
X170083536Y-98867631D01*
X170561000Y-99186661D01*
X170561000Y-99326764D01*
X169176764Y-100711000D01*
X169164264Y-100711000D01*
X169164264Y-93678188D01*
X169164264Y-88598188D01*
X168932738Y-88037851D01*
X168504404Y-87608769D01*
X167944472Y-87376265D01*
X167338188Y-87375736D01*
X166777851Y-87607262D01*
X166348769Y-88035596D01*
X166116265Y-88595528D01*
X166115736Y-89201812D01*
X166347262Y-89762149D01*
X166775596Y-90191231D01*
X167335528Y-90423735D01*
X167941812Y-90424264D01*
X168502149Y-90192738D01*
X168931231Y-89764404D01*
X169163735Y-89204472D01*
X169164264Y-88598188D01*
X169164264Y-93678188D01*
X168932738Y-93117851D01*
X168504404Y-92688769D01*
X167944472Y-92456265D01*
X167338188Y-92455736D01*
X166777851Y-92687262D01*
X166348769Y-93115596D01*
X166116265Y-93675528D01*
X166115736Y-94281812D01*
X166347262Y-94842149D01*
X166775596Y-95271231D01*
X167335528Y-95503735D01*
X167941812Y-95504264D01*
X168502149Y-95272738D01*
X168931231Y-94844404D01*
X169163735Y-94284472D01*
X169164264Y-93678188D01*
X169164264Y-100711000D01*
X168144370Y-100711000D01*
X168296231Y-100559404D01*
X168528735Y-99999472D01*
X168529264Y-99393188D01*
X168297738Y-98832851D01*
X167869404Y-98403769D01*
X167309472Y-98171265D01*
X166703188Y-98170736D01*
X166142851Y-98402262D01*
X165713769Y-98830596D01*
X165481265Y-99390528D01*
X165480736Y-99996812D01*
X165712262Y-100557149D01*
X165865844Y-100711000D01*
X165735000Y-100711000D01*
X165394795Y-100778670D01*
X165354264Y-100805752D01*
X165354264Y-96218188D01*
X165354264Y-88598188D01*
X165122738Y-88037851D01*
X164694404Y-87608769D01*
X164134472Y-87376265D01*
X163528188Y-87375736D01*
X162967851Y-87607262D01*
X162538769Y-88035596D01*
X162306265Y-88595528D01*
X162305736Y-89201812D01*
X162537262Y-89762149D01*
X162965596Y-90191231D01*
X163525528Y-90423735D01*
X164131812Y-90424264D01*
X164692149Y-90192738D01*
X165121231Y-89764404D01*
X165353735Y-89204472D01*
X165354264Y-88598188D01*
X165354264Y-96218188D01*
X165122738Y-95657851D01*
X164694404Y-95228769D01*
X164134472Y-94996265D01*
X163528188Y-94995736D01*
X162967851Y-95227262D01*
X162538769Y-95655596D01*
X162306265Y-96215528D01*
X162305736Y-96821812D01*
X162537262Y-97382149D01*
X162965596Y-97811231D01*
X163525528Y-98043735D01*
X164131812Y-98044264D01*
X164692149Y-97812738D01*
X165121231Y-97384404D01*
X165353735Y-96824472D01*
X165354264Y-96218188D01*
X165354264Y-100805752D01*
X165106382Y-100971382D01*
X162179264Y-103898500D01*
X162179264Y-96218188D01*
X162179264Y-88598188D01*
X161947738Y-88037851D01*
X161519404Y-87608769D01*
X160959472Y-87376265D01*
X160353188Y-87375736D01*
X159792851Y-87607262D01*
X159363769Y-88035596D01*
X159131265Y-88595528D01*
X159130736Y-89201812D01*
X159362262Y-89762149D01*
X159790596Y-90191231D01*
X160350528Y-90423735D01*
X160956812Y-90424264D01*
X161517149Y-90192738D01*
X161946231Y-89764404D01*
X162178735Y-89204472D01*
X162179264Y-88598188D01*
X162179264Y-96218188D01*
X161947738Y-95657851D01*
X161519404Y-95228769D01*
X160959472Y-94996265D01*
X160353188Y-94995736D01*
X159792851Y-95227262D01*
X159363769Y-95655596D01*
X159131265Y-96215528D01*
X159130736Y-96821812D01*
X159362262Y-97382149D01*
X159790596Y-97811231D01*
X160350528Y-98043735D01*
X160956812Y-98044264D01*
X161517149Y-97812738D01*
X161946231Y-97384404D01*
X162178735Y-96824472D01*
X162179264Y-96218188D01*
X162179264Y-103898500D01*
X161556764Y-104521000D01*
X161290000Y-104521000D01*
X160524370Y-104521000D01*
X160676231Y-104369404D01*
X160908735Y-103809472D01*
X160909264Y-103203188D01*
X160677738Y-102642851D01*
X160249404Y-102213769D01*
X159689472Y-101981265D01*
X159083188Y-101980736D01*
X158522851Y-102212262D01*
X158093769Y-102640596D01*
X157861265Y-103200528D01*
X157860736Y-103806812D01*
X158092262Y-104367149D01*
X158245844Y-104521000D01*
X157848236Y-104521000D01*
X155117377Y-101790141D01*
X155270528Y-101853735D01*
X155876812Y-101854264D01*
X156437149Y-101622738D01*
X156866231Y-101194404D01*
X157098735Y-100634472D01*
X157099264Y-100028188D01*
X156867738Y-99467851D01*
X156439404Y-99038769D01*
X155879472Y-98806265D01*
X155273188Y-98805736D01*
X154712851Y-99037262D01*
X154283769Y-99465596D01*
X154051265Y-100025528D01*
X154050736Y-100631812D01*
X154115296Y-100788060D01*
X149675653Y-96348417D01*
X149767833Y-95885000D01*
X149651825Y-95301790D01*
X149321464Y-94807369D01*
X149033562Y-94615000D01*
X149321464Y-94422631D01*
X149651825Y-93928210D01*
X149767833Y-93345000D01*
X149651825Y-92761790D01*
X149321464Y-92267369D01*
X149033562Y-92075000D01*
X149321464Y-91882631D01*
X149651825Y-91388210D01*
X149767833Y-90805000D01*
X149651825Y-90221790D01*
X149332657Y-89744120D01*
X149457698Y-89692327D01*
X149636327Y-89513699D01*
X149733000Y-89280310D01*
X149733000Y-89027691D01*
X149733000Y-87249691D01*
X149636327Y-87016302D01*
X149457699Y-86837673D01*
X149224310Y-86741000D01*
X148971691Y-86741000D01*
X146685691Y-86741000D01*
X146452302Y-86837673D01*
X146273673Y-87016301D01*
X146177000Y-87249690D01*
X146177000Y-87502309D01*
X146177000Y-89280309D01*
X146273673Y-89513698D01*
X146452301Y-89692327D01*
X146577342Y-89744121D01*
X146258175Y-90221790D01*
X146142167Y-90805000D01*
X146258175Y-91388210D01*
X146588536Y-91882631D01*
X146876437Y-92075000D01*
X146588536Y-92267369D01*
X146258175Y-92761790D01*
X146142167Y-93345000D01*
X146258175Y-93928210D01*
X146588536Y-94422631D01*
X146876437Y-94615000D01*
X146588536Y-94807369D01*
X146258175Y-95301790D01*
X146142167Y-95885000D01*
X146258175Y-96468210D01*
X146588536Y-96962631D01*
X147082957Y-97292992D01*
X147666167Y-97409000D01*
X148221764Y-97409000D01*
X153676382Y-102863618D01*
X156851382Y-106038618D01*
X157139794Y-106231329D01*
X157139795Y-106231329D01*
X157480000Y-106299000D01*
X158395091Y-106299000D01*
X158161702Y-106395673D01*
X157983073Y-106574301D01*
X157886400Y-106807690D01*
X157886400Y-107060309D01*
X157886400Y-109092309D01*
X157983073Y-109325698D01*
X158161701Y-109504327D01*
X158395090Y-109601000D01*
X158647709Y-109601000D01*
X160374909Y-109601000D01*
X160608298Y-109504327D01*
X160786927Y-109325699D01*
X160868758Y-109128139D01*
X161022964Y-109300732D01*
X161550209Y-109554709D01*
X161565974Y-109557358D01*
X161798000Y-109436217D01*
X161798000Y-108077000D01*
X161778000Y-108077000D01*
X161778000Y-107823000D01*
X161798000Y-107823000D01*
X161798000Y-106463783D01*
X161565974Y-106342642D01*
X161550209Y-106345291D01*
X161022964Y-106599268D01*
X160868758Y-106771860D01*
X160786927Y-106574302D01*
X160608299Y-106395673D01*
X160374910Y-106299000D01*
X161290000Y-106299000D01*
X161925000Y-106299000D01*
X162265205Y-106231329D01*
X162265206Y-106231329D01*
X162553618Y-106038618D01*
X165544858Y-103047377D01*
X165481265Y-103200528D01*
X165480736Y-103806812D01*
X165712262Y-104367149D01*
X166140596Y-104796231D01*
X166700528Y-105028735D01*
X166763973Y-105028790D01*
X166376382Y-105416382D01*
X166183671Y-105704794D01*
X166116000Y-106045000D01*
X166116000Y-106299000D01*
X166015091Y-106299000D01*
X165781702Y-106395673D01*
X165603073Y-106574301D01*
X165539499Y-106727779D01*
X165524670Y-106705585D01*
X165038489Y-106380729D01*
X164465000Y-106266655D01*
X163891511Y-106380729D01*
X163405330Y-106705585D01*
X163198539Y-107015069D01*
X162827036Y-106599268D01*
X162299791Y-106345291D01*
X162284026Y-106342642D01*
X162052000Y-106463783D01*
X162052000Y-107823000D01*
X162072000Y-107823000D01*
X162072000Y-108077000D01*
X162052000Y-108077000D01*
X162052000Y-109436217D01*
X162284026Y-109557358D01*
X162299791Y-109554709D01*
X162827036Y-109300732D01*
X163198539Y-108884930D01*
X163405330Y-109194415D01*
X163891511Y-109519271D01*
X164465000Y-109633345D01*
X165038489Y-109519271D01*
X165524670Y-109194415D01*
X165539500Y-109172219D01*
X165603073Y-109325698D01*
X165781701Y-109504327D01*
X166015090Y-109601000D01*
X166267709Y-109601000D01*
X167994909Y-109601000D01*
X168228298Y-109504327D01*
X168406927Y-109325699D01*
X168470500Y-109172220D01*
X168485330Y-109194415D01*
X168971511Y-109519271D01*
X169545000Y-109633345D01*
X170118489Y-109519271D01*
X170604670Y-109194415D01*
X170815000Y-108879634D01*
X171025330Y-109194415D01*
X171511511Y-109519271D01*
X172085000Y-109633345D01*
X172658489Y-109519271D01*
X173144670Y-109194415D01*
X173159500Y-109172219D01*
X173223073Y-109325698D01*
X173401701Y-109504327D01*
X173635090Y-109601000D01*
X173887709Y-109601000D01*
X175614909Y-109601000D01*
X175848298Y-109504327D01*
X176026927Y-109325699D01*
X176090500Y-109172220D01*
X176105330Y-109194415D01*
X176591511Y-109519271D01*
X177165000Y-109633345D01*
X177738489Y-109519271D01*
X178224670Y-109194415D01*
X178435000Y-108879634D01*
X178645330Y-109194415D01*
X179131511Y-109519271D01*
X179705000Y-109633345D01*
X180278489Y-109519271D01*
X180764670Y-109194415D01*
X181089526Y-108708234D01*
X181203600Y-108134745D01*
X181203600Y-107765255D01*
X181089526Y-107191766D01*
X180764670Y-106705585D01*
X180278489Y-106380729D01*
X179867609Y-106299000D01*
X183781764Y-106299000D01*
X183972622Y-106489858D01*
X183819472Y-106426265D01*
X183213188Y-106425736D01*
X182652851Y-106657262D01*
X182223769Y-107085596D01*
X181991265Y-107645528D01*
X181990736Y-108251812D01*
X182222262Y-108812149D01*
X182650596Y-109241231D01*
X183210528Y-109473735D01*
X183816812Y-109474264D01*
X184377149Y-109242738D01*
X184806231Y-108814404D01*
X185038735Y-108254472D01*
X185039264Y-107648188D01*
X185026209Y-107616592D01*
X185217018Y-107695824D01*
X185621208Y-107696176D01*
X185813169Y-107616859D01*
X185801265Y-107645528D01*
X185800736Y-108251812D01*
X186032262Y-108812149D01*
X186460596Y-109241231D01*
X187020528Y-109473735D01*
X187626812Y-109474264D01*
X188187149Y-109242738D01*
X188616231Y-108814404D01*
X188848735Y-108254472D01*
X188849264Y-107648188D01*
X188849264Y-104473188D01*
X188617738Y-103912851D01*
X188189404Y-103483769D01*
X187629472Y-103251265D01*
X187023188Y-103250736D01*
X186462851Y-103482262D01*
X186033769Y-103910596D01*
X185801265Y-104470528D01*
X185800736Y-105076812D01*
X186032262Y-105637149D01*
X186460596Y-106066231D01*
X187020528Y-106298735D01*
X187626812Y-106299264D01*
X188187149Y-106067738D01*
X188616231Y-105639404D01*
X188848735Y-105079472D01*
X188849264Y-104473188D01*
X188849264Y-107648188D01*
X188617738Y-107087851D01*
X188189404Y-106658769D01*
X187629472Y-106426265D01*
X187023188Y-106425736D01*
X186462851Y-106657262D01*
X186435997Y-106684068D01*
X186436176Y-106478792D01*
X186281825Y-106105234D01*
X185996269Y-105819179D01*
X185688701Y-105691465D01*
X184778618Y-104781382D01*
X184490206Y-104588671D01*
X184150000Y-104521000D01*
X179324264Y-104521000D01*
X179324264Y-101933188D01*
X179092738Y-101372851D01*
X178664404Y-100943769D01*
X178104472Y-100711265D01*
X177498188Y-100710736D01*
X176937851Y-100942262D01*
X176508769Y-101370596D01*
X176276265Y-101930528D01*
X176275736Y-102536812D01*
X176507262Y-103097149D01*
X176935596Y-103526231D01*
X177495528Y-103758735D01*
X178101812Y-103759264D01*
X178662149Y-103527738D01*
X179091231Y-103099404D01*
X179323735Y-102539472D01*
X179324264Y-101933188D01*
X179324264Y-104521000D01*
X174244264Y-104521000D01*
X174244264Y-101933188D01*
X174012738Y-101372851D01*
X173584404Y-100943769D01*
X173024472Y-100711265D01*
X172418188Y-100710736D01*
X171857851Y-100942262D01*
X171428769Y-101370596D01*
X171196265Y-101930528D01*
X171195736Y-102536812D01*
X171427262Y-103097149D01*
X171855596Y-103526231D01*
X172415528Y-103758735D01*
X173021812Y-103759264D01*
X173582149Y-103527738D01*
X174011231Y-103099404D01*
X174243735Y-102539472D01*
X174244264Y-101933188D01*
X174244264Y-104521000D01*
X168144370Y-104521000D01*
X168296231Y-104369404D01*
X168528735Y-103809472D01*
X168529264Y-103203188D01*
X168297738Y-102642851D01*
X168144155Y-102489000D01*
X169545000Y-102489000D01*
X169885205Y-102421329D01*
X169885206Y-102421329D01*
X170173618Y-102228618D01*
X171818236Y-100584000D01*
X178701764Y-100584000D01*
X180981382Y-102863618D01*
X181269794Y-103056329D01*
X181610000Y-103124000D01*
X184150000Y-103124000D01*
X184490205Y-103056329D01*
X184490206Y-103056329D01*
X184778618Y-102863618D01*
X185800788Y-101841447D01*
X185800736Y-101901812D01*
X186032262Y-102462149D01*
X186460596Y-102891231D01*
X187020528Y-103123735D01*
X187626812Y-103124264D01*
X188187149Y-102892738D01*
X188616231Y-102464404D01*
X188848735Y-101904472D01*
X188849264Y-101298188D01*
X188617738Y-100737851D01*
X188189404Y-100308769D01*
X187629472Y-100076265D01*
X187566026Y-100076209D01*
X188429928Y-99212307D01*
X188941167Y-99314000D01*
X189496764Y-99314000D01*
X190506382Y-100323618D01*
X190794794Y-100516329D01*
X190794795Y-100516329D01*
X191135000Y-100584000D01*
X193767032Y-100584000D01*
X193758212Y-100592820D01*
X193872801Y-100707409D01*
X193617461Y-100792467D01*
X193409484Y-101361965D01*
X193435277Y-101967700D01*
X193617461Y-102407533D01*
X193872804Y-102492591D01*
X194765395Y-101600000D01*
X194751252Y-101585857D01*
X194930857Y-101406252D01*
X194945000Y-101420395D01*
X194959142Y-101406252D01*
X195138747Y-101585857D01*
X195124605Y-101600000D01*
X196017196Y-102492591D01*
X196272539Y-102407533D01*
X196480516Y-101838035D01*
X196454723Y-101232300D01*
X196272539Y-100792467D01*
X196017198Y-100707409D01*
X196131788Y-100592820D01*
X196122968Y-100584000D01*
X199021764Y-100584000D01*
X199792292Y-101354528D01*
X199657300Y-101360277D01*
X199217467Y-101542461D01*
X199132409Y-101797804D01*
X200025000Y-102690395D01*
X200039142Y-102676252D01*
X200218747Y-102855857D01*
X200204605Y-102870000D01*
X200218747Y-102884142D01*
X200039142Y-103063747D01*
X200025000Y-103049605D01*
X199845395Y-103229210D01*
X199845395Y-102870000D01*
X198952804Y-101977409D01*
X198697461Y-102062467D01*
X198489484Y-102631965D01*
X198515277Y-103237700D01*
X198697461Y-103677533D01*
X198952804Y-103762591D01*
X199845395Y-102870000D01*
X199845395Y-103229210D01*
X199132409Y-103942196D01*
X199217467Y-104197539D01*
X199786965Y-104405516D01*
X200392700Y-104379723D01*
X200832533Y-104197539D01*
X200917590Y-103942198D01*
X200917591Y-103942199D01*
X201032180Y-104056788D01*
X201088641Y-104000326D01*
X201137673Y-104118698D01*
X201316301Y-104297327D01*
X201549690Y-104394000D01*
X201802309Y-104394000D01*
X203564753Y-104394000D01*
X203470510Y-104867795D01*
X203470510Y-105952205D01*
X203563516Y-106419782D01*
X203192380Y-106315510D01*
X202692000Y-106315510D01*
X202692000Y-107823000D01*
X204535645Y-107823000D01*
X204654999Y-107569646D01*
X204636565Y-107493517D01*
X205105000Y-107586695D01*
X205558514Y-107496485D01*
X205468305Y-107950000D01*
X205592723Y-108575492D01*
X205947036Y-109105759D01*
X206477303Y-109460072D01*
X207102795Y-109584490D01*
X208187205Y-109584490D01*
X208812697Y-109460072D01*
X209342964Y-109105759D01*
X209697277Y-108575492D01*
X209821695Y-107950000D01*
X209821695Y-112345000D01*
X204654999Y-112345000D01*
X204654999Y-108330354D01*
X204535645Y-108077000D01*
X202692000Y-108077000D01*
X202692000Y-109584490D01*
X203192380Y-109584490D01*
X203808205Y-109411471D01*
X204310942Y-109015956D01*
X204624053Y-108458159D01*
X204654999Y-108330354D01*
X204654999Y-112345000D01*
X202438000Y-112345000D01*
X202438000Y-109584490D01*
X202438000Y-108077000D01*
X202438000Y-107823000D01*
X202438000Y-106315510D01*
X201937620Y-106315510D01*
X201321795Y-106488529D01*
X200917591Y-106806525D01*
X200819058Y-106884044D01*
X200505947Y-107441841D01*
X200475001Y-107569646D01*
X200594355Y-107823000D01*
X202438000Y-107823000D01*
X202438000Y-108077000D01*
X200594355Y-108077000D01*
X200475001Y-108330354D01*
X200505947Y-108458159D01*
X200819058Y-109015956D01*
X201321795Y-109411471D01*
X201937620Y-109584490D01*
X202438000Y-109584490D01*
X202438000Y-112345000D01*
X199644264Y-112345000D01*
X199644264Y-105743188D01*
X199412738Y-105182851D01*
X198984404Y-104753769D01*
X198424472Y-104521265D01*
X197818188Y-104520736D01*
X197257851Y-104752262D01*
X196828769Y-105180596D01*
X196596265Y-105740528D01*
X196595736Y-106346812D01*
X196827262Y-106907149D01*
X197017073Y-107097291D01*
X196871301Y-107157673D01*
X196692673Y-107336302D01*
X196596000Y-107569691D01*
X196596000Y-108299250D01*
X196754750Y-108458000D01*
X197993000Y-108458000D01*
X197993000Y-108438000D01*
X198247000Y-108438000D01*
X198247000Y-108458000D01*
X199485250Y-108458000D01*
X199644000Y-108299250D01*
X199644000Y-107569691D01*
X199547327Y-107336302D01*
X199368699Y-107157673D01*
X199222988Y-107097317D01*
X199411231Y-106909404D01*
X199643735Y-106349472D01*
X199644264Y-105743188D01*
X199644264Y-112345000D01*
X199644000Y-112345000D01*
X199644000Y-109600309D01*
X199644000Y-108870750D01*
X199485250Y-108712000D01*
X198247000Y-108712000D01*
X198247000Y-109950250D01*
X198405750Y-110109000D01*
X198882691Y-110109000D01*
X199135310Y-110109000D01*
X199368699Y-110012327D01*
X199547327Y-109833698D01*
X199644000Y-109600309D01*
X199644000Y-112345000D01*
X197993000Y-112345000D01*
X197993000Y-109950250D01*
X197993000Y-108712000D01*
X196754750Y-108712000D01*
X196596000Y-108870750D01*
X196596000Y-109600309D01*
X196692673Y-109833698D01*
X196871301Y-110012327D01*
X197104690Y-110109000D01*
X197357309Y-110109000D01*
X197834250Y-110109000D01*
X197993000Y-109950250D01*
X197993000Y-112345000D01*
X196480516Y-112345000D01*
X196469264Y-112345000D01*
X196469264Y-107648188D01*
X196469264Y-104473188D01*
X196237738Y-103912851D01*
X195837591Y-103512005D01*
X195837591Y-102672196D01*
X194945000Y-101779605D01*
X194765395Y-101959210D01*
X194052409Y-102672196D01*
X194137467Y-102927539D01*
X194706965Y-103135516D01*
X195312700Y-103109723D01*
X195752533Y-102927539D01*
X195837591Y-102672196D01*
X195837591Y-103512005D01*
X195809404Y-103483769D01*
X195249472Y-103251265D01*
X194643188Y-103250736D01*
X194082851Y-103482262D01*
X193653769Y-103910596D01*
X193421265Y-104470528D01*
X193420736Y-105076812D01*
X193652262Y-105637149D01*
X194080596Y-106066231D01*
X194640528Y-106298735D01*
X195246812Y-106299264D01*
X195807149Y-106067738D01*
X196236231Y-105639404D01*
X196468735Y-105079472D01*
X196469264Y-104473188D01*
X196469264Y-107648188D01*
X196237738Y-107087851D01*
X195809404Y-106658769D01*
X195249472Y-106426265D01*
X194643188Y-106425736D01*
X194082851Y-106657262D01*
X193653769Y-107085596D01*
X193421265Y-107645528D01*
X193420736Y-108251812D01*
X193652262Y-108812149D01*
X194080596Y-109241231D01*
X194640528Y-109473735D01*
X195246812Y-109474264D01*
X195807149Y-109242738D01*
X196236231Y-108814404D01*
X196468735Y-108254472D01*
X196469264Y-107648188D01*
X196469264Y-112345000D01*
X155803600Y-112345000D01*
X155803600Y-108134745D01*
X155803600Y-107765255D01*
X155689526Y-107191766D01*
X155364670Y-106705585D01*
X154878489Y-106380729D01*
X154305000Y-106266655D01*
X153731511Y-106380729D01*
X153245330Y-106705585D01*
X153038539Y-107015069D01*
X152667036Y-106599268D01*
X152139791Y-106345291D01*
X152124026Y-106342642D01*
X151892000Y-106463783D01*
X151892000Y-107823000D01*
X151912000Y-107823000D01*
X151912000Y-108077000D01*
X151892000Y-108077000D01*
X151892000Y-109436217D01*
X152124026Y-109557358D01*
X152139791Y-109554709D01*
X152667036Y-109300732D01*
X153038539Y-108884930D01*
X153245330Y-109194415D01*
X153731511Y-109519271D01*
X154305000Y-109633345D01*
X154878489Y-109519271D01*
X155364670Y-109194415D01*
X155689526Y-108708234D01*
X155803600Y-108134745D01*
X155803600Y-112345000D01*
X151638000Y-112345000D01*
X151638000Y-109436217D01*
X151638000Y-108077000D01*
X151638000Y-107823000D01*
X151638000Y-106463783D01*
X151405974Y-106342642D01*
X151390209Y-106345291D01*
X150862964Y-106599268D01*
X150708758Y-106771860D01*
X150626927Y-106574301D01*
X150448298Y-106395673D01*
X150214909Y-106299000D01*
X149510750Y-106299000D01*
X149490516Y-106319234D01*
X149490516Y-100568035D01*
X149464723Y-99962300D01*
X149282539Y-99522467D01*
X149027196Y-99437409D01*
X148847591Y-99617014D01*
X148847591Y-99257804D01*
X148762533Y-99002461D01*
X148193035Y-98794484D01*
X147587300Y-98820277D01*
X147147467Y-99002461D01*
X147062409Y-99257804D01*
X147955000Y-100150395D01*
X148847591Y-99257804D01*
X148847591Y-99617014D01*
X148134605Y-100330000D01*
X149027196Y-101222591D01*
X149282539Y-101137533D01*
X149490516Y-100568035D01*
X149490516Y-106319234D01*
X149352000Y-106457750D01*
X149352000Y-107823000D01*
X150424076Y-107823000D01*
X150564850Y-107823000D01*
X151638000Y-107823000D01*
X151638000Y-108077000D01*
X150564850Y-108077000D01*
X150424076Y-108077000D01*
X149352000Y-108077000D01*
X149352000Y-109442250D01*
X149510750Y-109601000D01*
X150214909Y-109601000D01*
X150448298Y-109504327D01*
X150626927Y-109325699D01*
X150708758Y-109128139D01*
X150862964Y-109300732D01*
X151390209Y-109554709D01*
X151405974Y-109557358D01*
X151638000Y-109436217D01*
X151638000Y-112345000D01*
X149098000Y-112345000D01*
X149098000Y-109442250D01*
X149098000Y-108077000D01*
X149098000Y-107823000D01*
X149098000Y-106457750D01*
X148939250Y-106299000D01*
X148847591Y-106299000D01*
X148847591Y-101402196D01*
X147955000Y-100509605D01*
X147775395Y-100689210D01*
X147775395Y-100330000D01*
X146882804Y-99437409D01*
X146627461Y-99522467D01*
X146419484Y-100091965D01*
X146445277Y-100697700D01*
X146627461Y-101137533D01*
X146882804Y-101222591D01*
X147775395Y-100330000D01*
X147775395Y-100689210D01*
X147062409Y-101402196D01*
X147147467Y-101657539D01*
X147716965Y-101865516D01*
X148322700Y-101839723D01*
X148762533Y-101657539D01*
X148847591Y-101402196D01*
X148847591Y-106299000D01*
X148235091Y-106299000D01*
X148001702Y-106395673D01*
X147823073Y-106574301D01*
X147726400Y-106807690D01*
X147726400Y-107060309D01*
X147726400Y-107664250D01*
X147885150Y-107823000D01*
X149098000Y-107823000D01*
X149098000Y-108077000D01*
X147885150Y-108077000D01*
X147726400Y-108235750D01*
X147726400Y-108839691D01*
X147726400Y-109092310D01*
X147823073Y-109325699D01*
X148001702Y-109504327D01*
X148235091Y-109601000D01*
X148939250Y-109601000D01*
X149098000Y-109442250D01*
X149098000Y-112345000D01*
X145796000Y-112345000D01*
X145796000Y-107187309D01*
X145796000Y-106330750D01*
X145796000Y-105759250D01*
X145796000Y-104902691D01*
X145699327Y-104669302D01*
X145520699Y-104490673D01*
X145469628Y-104469518D01*
X145670325Y-104169155D01*
X145796000Y-103537345D01*
X145796000Y-103472655D01*
X145670325Y-102840845D01*
X145669264Y-102839257D01*
X145669264Y-98758188D01*
X145669264Y-93678188D01*
X145669264Y-90503188D01*
X145669264Y-82883188D01*
X145437738Y-82322851D01*
X145009404Y-81893769D01*
X144449472Y-81661265D01*
X143843188Y-81660736D01*
X143282851Y-81892262D01*
X142853769Y-82320596D01*
X142621265Y-82880528D01*
X142620736Y-83486812D01*
X142852262Y-84047149D01*
X143280596Y-84476231D01*
X143840528Y-84708735D01*
X144446812Y-84709264D01*
X145007149Y-84477738D01*
X145436231Y-84049404D01*
X145668735Y-83489472D01*
X145669264Y-82883188D01*
X145669264Y-90503188D01*
X145437738Y-89942851D01*
X145009404Y-89513769D01*
X144449472Y-89281265D01*
X143843188Y-89280736D01*
X143282851Y-89512262D01*
X142853769Y-89940596D01*
X142621265Y-90500528D01*
X142620736Y-91106812D01*
X142852262Y-91667149D01*
X143280596Y-92096231D01*
X143840528Y-92328735D01*
X144446812Y-92329264D01*
X145007149Y-92097738D01*
X145436231Y-91669404D01*
X145668735Y-91109472D01*
X145669264Y-90503188D01*
X145669264Y-93678188D01*
X145437738Y-93117851D01*
X145009404Y-92688769D01*
X144449472Y-92456265D01*
X143843188Y-92455736D01*
X143282851Y-92687262D01*
X142853769Y-93115596D01*
X142621265Y-93675528D01*
X142620736Y-94281812D01*
X142852262Y-94842149D01*
X143280596Y-95271231D01*
X143840528Y-95503735D01*
X144446812Y-95504264D01*
X145007149Y-95272738D01*
X145436231Y-94844404D01*
X145668735Y-94284472D01*
X145669264Y-93678188D01*
X145669264Y-98758188D01*
X145437738Y-98197851D01*
X145009404Y-97768769D01*
X144449472Y-97536265D01*
X143843188Y-97535736D01*
X143282851Y-97767262D01*
X142853769Y-98195596D01*
X142621265Y-98755528D01*
X142620736Y-99361812D01*
X142852262Y-99922149D01*
X143280596Y-100351231D01*
X143840528Y-100583735D01*
X144446812Y-100584264D01*
X145007149Y-100352738D01*
X145436231Y-99924404D01*
X145668735Y-99364472D01*
X145669264Y-98758188D01*
X145669264Y-102839257D01*
X145312433Y-102305222D01*
X144776810Y-101947330D01*
X144145000Y-101821655D01*
X143513190Y-101947330D01*
X142977567Y-102305222D01*
X142619675Y-102840845D01*
X142494000Y-103472655D01*
X142494000Y-103537345D01*
X142619675Y-104169155D01*
X142820371Y-104469518D01*
X142769301Y-104490673D01*
X142590673Y-104669302D01*
X142494000Y-104902691D01*
X142494000Y-105759250D01*
X142652750Y-105918000D01*
X144018000Y-105918000D01*
X144018000Y-105898000D01*
X144272000Y-105898000D01*
X144272000Y-105918000D01*
X145637250Y-105918000D01*
X145796000Y-105759250D01*
X145796000Y-106330750D01*
X145637250Y-106172000D01*
X144272000Y-106172000D01*
X144272000Y-107537250D01*
X144430750Y-107696000D01*
X145034691Y-107696000D01*
X145287310Y-107696000D01*
X145520699Y-107599327D01*
X145699327Y-107420698D01*
X145796000Y-107187309D01*
X145796000Y-112345000D01*
X143907724Y-112345000D01*
X144184677Y-111930512D01*
X144344903Y-111125000D01*
X144184677Y-110319488D01*
X144018000Y-110070038D01*
X144018000Y-107537250D01*
X144018000Y-106172000D01*
X142652750Y-106172000D01*
X142494000Y-106330750D01*
X142494000Y-107187309D01*
X142590673Y-107420698D01*
X142769301Y-107599327D01*
X143002690Y-107696000D01*
X143255309Y-107696000D01*
X143859250Y-107696000D01*
X144018000Y-107537250D01*
X144018000Y-110070038D01*
X143728391Y-109636609D01*
X143045512Y-109180323D01*
X142240000Y-109020097D01*
X141434488Y-109180323D01*
X141020000Y-109457275D01*
X141020000Y-81677724D01*
X141434488Y-81954677D01*
X142240000Y-82114903D01*
X143045512Y-81954677D01*
X143728391Y-81498391D01*
X144184677Y-80815512D01*
X144344903Y-80010000D01*
X144184677Y-79204488D01*
X143907724Y-78790000D01*
X214232275Y-78790000D01*
X213955323Y-79204488D01*
X213795097Y-80010000D01*
X213955323Y-80815512D01*
X214411609Y-81498391D01*
X215094488Y-81954677D01*
X215900000Y-82114903D01*
X216705512Y-81954677D01*
X217120000Y-81677724D01*
X217120000Y-109457275D01*
X217120000Y-109457275D01*
G37*
X217120000Y-109457275D02*
X216705512Y-109180323D01*
X215900000Y-109020097D01*
X215112600Y-109176720D01*
X215112600Y-102208910D01*
X215112600Y-101956291D01*
X215112600Y-99721091D01*
X215112600Y-94588910D01*
X215112600Y-94336291D01*
X215112600Y-92101091D01*
X215112600Y-86968910D01*
X215112600Y-86716291D01*
X215112600Y-84481091D01*
X215015927Y-84247702D01*
X214837299Y-84069073D01*
X214603910Y-83972400D01*
X214351291Y-83972400D01*
X212116091Y-83972400D01*
X211882702Y-84069073D01*
X211704073Y-84247701D01*
X211607400Y-84481090D01*
X211607400Y-84733709D01*
X211607400Y-86968909D01*
X211704073Y-87202298D01*
X211882701Y-87380927D01*
X212116090Y-87477600D01*
X212368709Y-87477600D01*
X214603909Y-87477600D01*
X214837298Y-87380927D01*
X215015927Y-87202299D01*
X215112600Y-86968910D01*
X215112600Y-92101091D01*
X215015927Y-91867702D01*
X214837299Y-91689073D01*
X214603910Y-91592400D01*
X214351291Y-91592400D01*
X212116091Y-91592400D01*
X211882702Y-91689073D01*
X211704073Y-91867701D01*
X211607400Y-92101090D01*
X211607400Y-92353709D01*
X211607400Y-94588909D01*
X211704073Y-94822298D01*
X211882701Y-95000927D01*
X212116090Y-95097600D01*
X212368709Y-95097600D01*
X214603909Y-95097600D01*
X214837298Y-95000927D01*
X215015927Y-94822299D01*
X215112600Y-94588910D01*
X215112600Y-99721091D01*
X215015927Y-99487702D01*
X214837299Y-99309073D01*
X214603910Y-99212400D01*
X214351291Y-99212400D01*
X212116091Y-99212400D01*
X211882702Y-99309073D01*
X211704073Y-99487701D01*
X211607400Y-99721090D01*
X211607400Y-99973709D01*
X211607400Y-102208909D01*
X211704073Y-102442298D01*
X211882701Y-102620927D01*
X212116090Y-102717600D01*
X212368709Y-102717600D01*
X214603909Y-102717600D01*
X214837298Y-102620927D01*
X215015927Y-102442299D01*
X215112600Y-102208910D01*
X215112600Y-109176720D01*
X215094488Y-109180323D01*
X215011000Y-109236108D01*
X215011000Y-107982345D01*
X215011000Y-107917655D01*
X214885325Y-107285845D01*
X214684628Y-106985480D01*
X214735698Y-106964327D01*
X214914327Y-106785699D01*
X215011000Y-106552310D01*
X215011000Y-106299691D01*
X215011000Y-104267691D01*
X214914327Y-104034302D01*
X214735699Y-103855673D01*
X214502310Y-103759000D01*
X214249691Y-103759000D01*
X212217691Y-103759000D01*
X211984302Y-103855673D01*
X211805673Y-104034301D01*
X211709000Y-104267690D01*
X211709000Y-104520309D01*
X211709000Y-106552309D01*
X211805673Y-106785698D01*
X211984301Y-106964327D01*
X212035371Y-106985481D01*
X211834675Y-107285845D01*
X211709000Y-107917655D01*
X211709000Y-107982345D01*
X211834675Y-108614155D01*
X212192567Y-109149778D01*
X212728190Y-109507670D01*
X213360000Y-109633345D01*
X213991810Y-109507670D01*
X214527433Y-109149778D01*
X214885325Y-108614155D01*
X215011000Y-107982345D01*
X215011000Y-109236108D01*
X214411609Y-109636609D01*
X213955323Y-110319488D01*
X213795097Y-111125000D01*
X213955323Y-111930512D01*
X214232275Y-112345000D01*
X210598345Y-112345000D01*
X210598345Y-100965000D01*
X210484271Y-100391511D01*
X210159415Y-99905330D01*
X209844634Y-99695000D01*
X210159415Y-99484670D01*
X210484271Y-98998489D01*
X210598345Y-98425000D01*
X210598345Y-93345000D01*
X210484271Y-92771511D01*
X210159415Y-92285330D01*
X209844634Y-92075000D01*
X210159415Y-91864670D01*
X210484271Y-91378489D01*
X210598345Y-90805000D01*
X210598345Y-85725000D01*
X210484271Y-85151511D01*
X210159415Y-84665330D01*
X209844634Y-84455000D01*
X210159415Y-84244670D01*
X210484271Y-83758489D01*
X210598345Y-83185000D01*
X210484271Y-82611511D01*
X210159415Y-82125330D01*
X209673234Y-81800474D01*
X209099745Y-81686400D01*
X208730255Y-81686400D01*
X208156766Y-81800474D01*
X207670585Y-82125330D01*
X207345729Y-82611511D01*
X207231655Y-83185000D01*
X207345729Y-83758489D01*
X207670585Y-84244670D01*
X207985365Y-84455000D01*
X207670585Y-84665330D01*
X207345729Y-85151511D01*
X207231655Y-85725000D01*
X207345729Y-86298489D01*
X207670585Y-86784670D01*
X207692779Y-86799499D01*
X207539301Y-86863073D01*
X207360673Y-87041702D01*
X207264000Y-87275091D01*
X207264000Y-87979250D01*
X207422750Y-88138000D01*
X208788000Y-88138000D01*
X208788000Y-88118000D01*
X209042000Y-88118000D01*
X209042000Y-88138000D01*
X210407250Y-88138000D01*
X210566000Y-87979250D01*
X210566000Y-87275091D01*
X210469327Y-87041702D01*
X210290699Y-86863073D01*
X210137220Y-86799499D01*
X210159415Y-86784670D01*
X210484271Y-86298489D01*
X210598345Y-85725000D01*
X210598345Y-90805000D01*
X210484271Y-90231511D01*
X210159415Y-89745330D01*
X210137220Y-89730500D01*
X210290699Y-89666927D01*
X210469327Y-89488298D01*
X210566000Y-89254909D01*
X210566000Y-88550750D01*
X210407250Y-88392000D01*
X209042000Y-88392000D01*
X209042000Y-88412000D01*
X208788000Y-88412000D01*
X208788000Y-88392000D01*
X207422750Y-88392000D01*
X207264000Y-88550750D01*
X207264000Y-89254909D01*
X207360673Y-89488298D01*
X207539301Y-89666927D01*
X207692779Y-89730500D01*
X207670585Y-89745330D01*
X207345729Y-90231511D01*
X207231655Y-90805000D01*
X207345729Y-91378489D01*
X207670585Y-91864670D01*
X207985365Y-92075000D01*
X207670585Y-92285330D01*
X207345729Y-92771511D01*
X207231655Y-93345000D01*
X207345729Y-93918489D01*
X207670585Y-94404670D01*
X207692779Y-94419499D01*
X207539301Y-94483073D01*
X207360673Y-94661702D01*
X207264000Y-94895091D01*
X207264000Y-95599250D01*
X207422750Y-95758000D01*
X208788000Y-95758000D01*
X208788000Y-95738000D01*
X209042000Y-95738000D01*
X209042000Y-95758000D01*
X210407250Y-95758000D01*
X210566000Y-95599250D01*
X210566000Y-94895091D01*
X210469327Y-94661702D01*
X210290699Y-94483073D01*
X210137220Y-94419499D01*
X210159415Y-94404670D01*
X210484271Y-93918489D01*
X210598345Y-93345000D01*
X210598345Y-98425000D01*
X210484271Y-97851511D01*
X210159415Y-97365330D01*
X210137220Y-97350500D01*
X210290699Y-97286927D01*
X210469327Y-97108298D01*
X210566000Y-96874909D01*
X210566000Y-96170750D01*
X210407250Y-96012000D01*
X209042000Y-96012000D01*
X209042000Y-96032000D01*
X208788000Y-96032000D01*
X208788000Y-96012000D01*
X207422750Y-96012000D01*
X207264000Y-96170750D01*
X207264000Y-96874909D01*
X207360673Y-97108298D01*
X207539301Y-97286927D01*
X207692779Y-97350500D01*
X207670585Y-97365330D01*
X207345729Y-97851511D01*
X207231655Y-98425000D01*
X207345729Y-98998489D01*
X207670585Y-99484670D01*
X207985365Y-99695000D01*
X207670585Y-99905330D01*
X207345729Y-100391511D01*
X207231655Y-100965000D01*
X207345729Y-101538489D01*
X207670585Y-102024670D01*
X207692779Y-102039499D01*
X207539301Y-102103073D01*
X207360673Y-102281702D01*
X207264000Y-102515091D01*
X207264000Y-103219250D01*
X207422750Y-103378000D01*
X208788000Y-103378000D01*
X208788000Y-103358000D01*
X209042000Y-103358000D01*
X209042000Y-103378000D01*
X210407250Y-103378000D01*
X210566000Y-103219250D01*
X210566000Y-102515091D01*
X210469327Y-102281702D01*
X210290699Y-102103073D01*
X210137220Y-102039499D01*
X210159415Y-102024670D01*
X210484271Y-101538489D01*
X210598345Y-100965000D01*
X210598345Y-112345000D01*
X210566000Y-112345000D01*
X210566000Y-104494909D01*
X210566000Y-103790750D01*
X210407250Y-103632000D01*
X209042000Y-103632000D01*
X209042000Y-104844850D01*
X209200750Y-105003600D01*
X209804691Y-105003600D01*
X210057310Y-105003600D01*
X210290699Y-104906927D01*
X210469327Y-104728298D01*
X210566000Y-104494909D01*
X210566000Y-112345000D01*
X209821695Y-112345000D01*
X209821695Y-107950000D01*
X209697277Y-107324508D01*
X209342964Y-106794241D01*
X208812697Y-106439928D01*
X208788000Y-106435015D01*
X208788000Y-104844850D01*
X208788000Y-103632000D01*
X207422750Y-103632000D01*
X207264000Y-103790750D01*
X207264000Y-104494909D01*
X207360673Y-104728298D01*
X207539301Y-104906927D01*
X207772690Y-105003600D01*
X208025309Y-105003600D01*
X208629250Y-105003600D01*
X208788000Y-104844850D01*
X208788000Y-106435015D01*
X208187205Y-106315510D01*
X207102795Y-106315510D01*
X206649280Y-106405719D01*
X206739490Y-105952205D01*
X206739490Y-104867795D01*
X206615072Y-104242303D01*
X206260759Y-103712036D01*
X206121176Y-103618769D01*
X206121176Y-81078792D01*
X205966825Y-80705234D01*
X205681269Y-80419179D01*
X205307982Y-80264176D01*
X204903792Y-80263824D01*
X204530234Y-80418175D01*
X204244179Y-80703731D01*
X204089176Y-81077018D01*
X204088824Y-81481208D01*
X204216000Y-81788997D01*
X204216000Y-82816764D01*
X203454000Y-83578764D01*
X203454000Y-82169691D01*
X203357327Y-81936302D01*
X203178699Y-81757673D01*
X202945310Y-81661000D01*
X202692691Y-81661000D01*
X200914691Y-81661000D01*
X200681302Y-81757673D01*
X200502673Y-81936301D01*
X200442317Y-82082011D01*
X200254404Y-81893769D01*
X199694472Y-81661265D01*
X199088188Y-81660736D01*
X198527851Y-81892262D01*
X198098769Y-82320596D01*
X197866265Y-82880528D01*
X197865736Y-83486812D01*
X198097262Y-84047149D01*
X198525596Y-84476231D01*
X199085528Y-84708735D01*
X199691812Y-84709264D01*
X200252149Y-84477738D01*
X200442292Y-84287926D01*
X200502673Y-84433698D01*
X200681301Y-84612327D01*
X200914690Y-84709000D01*
X201167309Y-84709000D01*
X202323764Y-84709000D01*
X199021764Y-88011000D01*
X198120000Y-88011000D01*
X197956863Y-88043449D01*
X198141231Y-87859404D01*
X198373735Y-87299472D01*
X198374264Y-86693188D01*
X198142738Y-86132851D01*
X197714404Y-85703769D01*
X197154472Y-85471265D01*
X196548188Y-85470736D01*
X195987851Y-85702262D01*
X195834000Y-85855844D01*
X195834000Y-85090000D01*
X195766329Y-84749794D01*
X195672988Y-84610099D01*
X195910528Y-84708735D01*
X196516812Y-84709264D01*
X197077149Y-84477738D01*
X197506231Y-84049404D01*
X197738735Y-83489472D01*
X197739264Y-82883188D01*
X197507738Y-82322851D01*
X197079404Y-81893769D01*
X196519472Y-81661265D01*
X195913188Y-81660736D01*
X195352851Y-81892262D01*
X194923769Y-82320596D01*
X194691265Y-82880528D01*
X194690736Y-83486812D01*
X194922262Y-84047149D01*
X195108263Y-84233474D01*
X194945000Y-84201000D01*
X189734370Y-84201000D01*
X189886231Y-84049404D01*
X190118735Y-83489472D01*
X190119264Y-82883188D01*
X189887738Y-82322851D01*
X189459404Y-81893769D01*
X188899472Y-81661265D01*
X188293188Y-81660736D01*
X187732851Y-81892262D01*
X187303769Y-82320596D01*
X187071265Y-82880528D01*
X187070736Y-83486812D01*
X187302262Y-84047149D01*
X187455844Y-84201000D01*
X185997292Y-84201000D01*
X186169526Y-83943234D01*
X186283600Y-83369745D01*
X186283600Y-83000255D01*
X186169526Y-82426766D01*
X185844670Y-81940585D01*
X185358489Y-81615729D01*
X184785000Y-81501655D01*
X184211511Y-81615729D01*
X183725330Y-81940585D01*
X183515000Y-82255365D01*
X183304670Y-81940585D01*
X182818489Y-81615729D01*
X182245000Y-81501655D01*
X181671511Y-81615729D01*
X181185330Y-81940585D01*
X181170499Y-81962780D01*
X181106927Y-81809302D01*
X180928299Y-81630673D01*
X180694910Y-81534000D01*
X180442291Y-81534000D01*
X178715091Y-81534000D01*
X178481702Y-81630673D01*
X178303073Y-81809301D01*
X178239499Y-81962779D01*
X178224670Y-81940585D01*
X177738489Y-81615729D01*
X177165000Y-81501655D01*
X176591511Y-81615729D01*
X176105330Y-81940585D01*
X175895000Y-82255365D01*
X175684670Y-81940585D01*
X175198489Y-81615729D01*
X174625000Y-81501655D01*
X174051511Y-81615729D01*
X173565330Y-81940585D01*
X173550499Y-81962780D01*
X173486927Y-81809302D01*
X173308299Y-81630673D01*
X173074910Y-81534000D01*
X172822291Y-81534000D01*
X171095091Y-81534000D01*
X170861702Y-81630673D01*
X170683073Y-81809301D01*
X170586400Y-82042690D01*
X170586400Y-82295309D01*
X170586400Y-84201000D01*
X168779370Y-84201000D01*
X168931231Y-84049404D01*
X169163735Y-83489472D01*
X169164264Y-82883188D01*
X168932738Y-82322851D01*
X168504404Y-81893769D01*
X167944472Y-81661265D01*
X167338188Y-81660736D01*
X166777851Y-81892262D01*
X166348769Y-82320596D01*
X166116265Y-82880528D01*
X166115736Y-83486812D01*
X166347262Y-84047149D01*
X166500844Y-84201000D01*
X161159370Y-84201000D01*
X161311231Y-84049404D01*
X161543735Y-83489472D01*
X161544264Y-82883188D01*
X161312738Y-82322851D01*
X160884404Y-81893769D01*
X160324472Y-81661265D01*
X159718188Y-81660736D01*
X159157851Y-81892262D01*
X158728769Y-82320596D01*
X158496265Y-82880528D01*
X158495736Y-83486812D01*
X158727262Y-84047149D01*
X158880844Y-84201000D01*
X158750000Y-84201000D01*
X158409794Y-84268671D01*
X158121382Y-84461382D01*
X157073600Y-85509164D01*
X157073600Y-83369745D01*
X157073600Y-83000255D01*
X156959526Y-82426766D01*
X156634670Y-81940585D01*
X156148489Y-81615729D01*
X155575000Y-81501655D01*
X155001511Y-81615729D01*
X154515330Y-81940585D01*
X154305000Y-82255365D01*
X154094670Y-81940585D01*
X153608489Y-81615729D01*
X153035000Y-81501655D01*
X152461511Y-81615729D01*
X151975330Y-81940585D01*
X151960499Y-81962780D01*
X151896927Y-81809302D01*
X151718299Y-81630673D01*
X151484910Y-81534000D01*
X151232291Y-81534000D01*
X149505091Y-81534000D01*
X149271702Y-81630673D01*
X149093073Y-81809301D01*
X148996400Y-82042690D01*
X148996400Y-82295309D01*
X148996400Y-84327309D01*
X149093073Y-84560698D01*
X149271701Y-84739327D01*
X149505090Y-84836000D01*
X149757709Y-84836000D01*
X151484909Y-84836000D01*
X151718298Y-84739327D01*
X151896927Y-84560699D01*
X151960500Y-84407220D01*
X151975330Y-84429415D01*
X152461511Y-84754271D01*
X153035000Y-84868345D01*
X153608489Y-84754271D01*
X154094670Y-84429415D01*
X154305000Y-84114634D01*
X154515330Y-84429415D01*
X155001511Y-84754271D01*
X155575000Y-84868345D01*
X156148489Y-84754271D01*
X156634670Y-84429415D01*
X156959526Y-83943234D01*
X157073600Y-83369745D01*
X157073600Y-85509164D01*
X155841764Y-86741000D01*
X155286167Y-86741000D01*
X154702957Y-86857008D01*
X154208536Y-87187369D01*
X153878175Y-87681790D01*
X153762167Y-88265000D01*
X153878175Y-88848210D01*
X154208536Y-89342631D01*
X154496437Y-89535000D01*
X154208536Y-89727369D01*
X153878175Y-90221790D01*
X153762167Y-90805000D01*
X153878175Y-91388210D01*
X154208536Y-91882631D01*
X154496437Y-92075000D01*
X154208536Y-92267369D01*
X153878175Y-92761790D01*
X153762167Y-93345000D01*
X153878175Y-93928210D01*
X154208536Y-94422631D01*
X154496437Y-94615000D01*
X154208536Y-94807369D01*
X153878175Y-95301790D01*
X153762167Y-95885000D01*
X153878175Y-96468210D01*
X154208536Y-96962631D01*
X154702957Y-97292992D01*
X155286167Y-97409000D01*
X155863833Y-97409000D01*
X156447043Y-97292992D01*
X156941464Y-96962631D01*
X157226000Y-96536792D01*
X157226000Y-98425000D01*
X157293671Y-98765206D01*
X157486382Y-99053618D01*
X157861231Y-99428467D01*
X157860736Y-99996812D01*
X158092262Y-100557149D01*
X158520596Y-100986231D01*
X159080528Y-101218735D01*
X159686812Y-101219264D01*
X160247149Y-100987738D01*
X160676231Y-100559404D01*
X160908735Y-99999472D01*
X160909264Y-99393188D01*
X160677738Y-98832851D01*
X160249404Y-98403769D01*
X159689472Y-98171265D01*
X159118002Y-98170766D01*
X159004000Y-98056764D01*
X159004000Y-93345000D01*
X158936329Y-93004794D01*
X158743618Y-92716382D01*
X158455206Y-92523671D01*
X158115000Y-92456000D01*
X157067502Y-92456000D01*
X156941464Y-92267369D01*
X156653562Y-92075000D01*
X156941464Y-91882631D01*
X157271825Y-91388210D01*
X157387833Y-90805000D01*
X157271825Y-90221790D01*
X156941464Y-89727369D01*
X156653562Y-89535000D01*
X156941464Y-89342631D01*
X157271825Y-88848210D01*
X157387833Y-88265000D01*
X157295653Y-87801582D01*
X159118236Y-85979000D01*
X170310629Y-85979000D01*
X170158769Y-86130596D01*
X169926265Y-86690528D01*
X169925736Y-87296812D01*
X170157262Y-87857149D01*
X170585596Y-88286231D01*
X171145528Y-88518735D01*
X171751812Y-88519264D01*
X172312149Y-88287738D01*
X172741231Y-87859404D01*
X172973735Y-87299472D01*
X172974264Y-86693188D01*
X172742738Y-86132851D01*
X172589155Y-85979000D01*
X177930629Y-85979000D01*
X177778769Y-86130596D01*
X177546265Y-86690528D01*
X177545736Y-87296812D01*
X177777262Y-87857149D01*
X178205596Y-88286231D01*
X178765528Y-88518735D01*
X179371812Y-88519264D01*
X179528060Y-88454703D01*
X179336764Y-88646000D01*
X178781167Y-88646000D01*
X178197957Y-88762008D01*
X177703536Y-89092369D01*
X177373175Y-89586790D01*
X177257167Y-90170000D01*
X177373175Y-90753210D01*
X177703536Y-91247631D01*
X177991437Y-91440000D01*
X177703536Y-91632369D01*
X177373175Y-92126790D01*
X177257167Y-92710000D01*
X177373175Y-93293210D01*
X177703536Y-93787631D01*
X177997794Y-93984247D01*
X177648567Y-94262171D01*
X177359407Y-94784122D01*
X177335866Y-94886987D01*
X177456670Y-95123000D01*
X178943000Y-95123000D01*
X178943000Y-95103000D01*
X179197000Y-95103000D01*
X179197000Y-95123000D01*
X180683330Y-95123000D01*
X180804134Y-94886987D01*
X180780593Y-94784122D01*
X180491433Y-94262171D01*
X180142205Y-93984247D01*
X180436464Y-93787631D01*
X180766825Y-93293210D01*
X180882833Y-92710000D01*
X180766825Y-92126790D01*
X180436464Y-91632369D01*
X180148562Y-91440000D01*
X180436464Y-91247631D01*
X180766825Y-90753210D01*
X180882833Y-90170000D01*
X180790653Y-89706582D01*
X183508618Y-86988618D01*
X183701329Y-86700206D01*
X183701330Y-86700205D01*
X183769000Y-86360000D01*
X183769000Y-85979000D01*
X184280629Y-85979000D01*
X184128769Y-86130596D01*
X183896265Y-86690528D01*
X183895736Y-87296812D01*
X184127262Y-87857149D01*
X184555596Y-88286231D01*
X185115528Y-88518735D01*
X185721812Y-88519264D01*
X186282149Y-88287738D01*
X186711231Y-87859404D01*
X186943735Y-87299472D01*
X186944264Y-86693188D01*
X186712738Y-86132851D01*
X186559155Y-85979000D01*
X191900629Y-85979000D01*
X191748769Y-86130596D01*
X191516265Y-86690528D01*
X191515736Y-87296812D01*
X191747262Y-87857149D01*
X192175596Y-88286231D01*
X192735528Y-88518735D01*
X193341812Y-88519264D01*
X193902149Y-88287738D01*
X194056000Y-88134155D01*
X194056000Y-88265000D01*
X194123671Y-88605206D01*
X194316382Y-88893618D01*
X195129346Y-89706582D01*
X195037167Y-90170000D01*
X195153175Y-90753210D01*
X195483536Y-91247631D01*
X195771437Y-91440000D01*
X195483536Y-91632369D01*
X195153175Y-92126790D01*
X195037167Y-92710000D01*
X195153175Y-93293210D01*
X195483536Y-93787631D01*
X195777794Y-93984247D01*
X195428567Y-94262171D01*
X195139407Y-94784122D01*
X195115866Y-94886987D01*
X195236670Y-95123000D01*
X196723000Y-95123000D01*
X196723000Y-95103000D01*
X196977000Y-95103000D01*
X196977000Y-95123000D01*
X198463330Y-95123000D01*
X198584134Y-94886987D01*
X198560593Y-94784122D01*
X198271433Y-94262171D01*
X197922205Y-93984247D01*
X198216464Y-93787631D01*
X198546825Y-93293210D01*
X198662833Y-92710000D01*
X198546825Y-92126790D01*
X198216464Y-91632369D01*
X197928562Y-91440000D01*
X198216464Y-91247631D01*
X198546825Y-90753210D01*
X198662833Y-90170000D01*
X198587047Y-89789000D01*
X199168042Y-89789000D01*
X199136265Y-89865528D01*
X199135736Y-90471812D01*
X199367262Y-91032149D01*
X199795596Y-91461231D01*
X200355528Y-91693735D01*
X200961812Y-91694264D01*
X201522149Y-91462738D01*
X201951231Y-91034404D01*
X202183735Y-90474472D01*
X202184264Y-89868188D01*
X201952738Y-89307851D01*
X201524404Y-88878769D01*
X200964472Y-88646265D01*
X200901026Y-88646209D01*
X203009858Y-86537377D01*
X202946265Y-86690528D01*
X202945736Y-87296812D01*
X203177262Y-87857149D01*
X203605596Y-88286231D01*
X204165528Y-88518735D01*
X204771812Y-88519264D01*
X205332149Y-88287738D01*
X205761231Y-87859404D01*
X205993735Y-87299472D01*
X205994264Y-86693188D01*
X205762738Y-86132851D01*
X205334404Y-85703769D01*
X204774472Y-85471265D01*
X204168188Y-85470736D01*
X204011939Y-85535296D01*
X205733618Y-83813618D01*
X205926329Y-83525206D01*
X205926330Y-83525205D01*
X205994000Y-83185000D01*
X205994000Y-81788406D01*
X206120824Y-81482982D01*
X206121176Y-81078792D01*
X206121176Y-103618769D01*
X205994264Y-103533969D01*
X205994264Y-98758188D01*
X205994264Y-89868188D01*
X205762738Y-89307851D01*
X205334404Y-88878769D01*
X204774472Y-88646265D01*
X204168188Y-88645736D01*
X203607851Y-88877262D01*
X203178769Y-89305596D01*
X202946265Y-89865528D01*
X202945736Y-90471812D01*
X203177262Y-91032149D01*
X203367073Y-91222292D01*
X203221302Y-91282673D01*
X203042673Y-91461301D01*
X202946000Y-91694690D01*
X202946000Y-91947309D01*
X202946000Y-93725309D01*
X203042673Y-93958698D01*
X203221301Y-94137327D01*
X203454690Y-94234000D01*
X203707309Y-94234000D01*
X205485309Y-94234000D01*
X205718698Y-94137327D01*
X205897327Y-93958699D01*
X205994000Y-93725310D01*
X205994000Y-93472691D01*
X205994000Y-91694691D01*
X205897327Y-91461302D01*
X205718699Y-91282673D01*
X205572988Y-91222317D01*
X205761231Y-91034404D01*
X205993735Y-90474472D01*
X205994264Y-89868188D01*
X205994264Y-98758188D01*
X205762738Y-98197851D01*
X205572926Y-98007707D01*
X205718698Y-97947327D01*
X205897327Y-97768699D01*
X205994000Y-97535310D01*
X205994000Y-97282691D01*
X205994000Y-95504691D01*
X205897327Y-95271302D01*
X205718699Y-95092673D01*
X205485310Y-94996000D01*
X205232691Y-94996000D01*
X203454691Y-94996000D01*
X203221302Y-95092673D01*
X203042673Y-95271301D01*
X202946000Y-95504690D01*
X202946000Y-95757309D01*
X202946000Y-97535309D01*
X203042673Y-97768698D01*
X203221301Y-97947327D01*
X203367011Y-98007682D01*
X203178769Y-98195596D01*
X202946265Y-98755528D01*
X202945736Y-99361812D01*
X203177262Y-99922149D01*
X203605596Y-100351231D01*
X204165528Y-100583735D01*
X204771812Y-100584264D01*
X205332149Y-100352738D01*
X205761231Y-99924404D01*
X205993735Y-99364472D01*
X205994264Y-98758188D01*
X205994264Y-103533969D01*
X205730492Y-103357723D01*
X205105000Y-103233305D01*
X204479508Y-103357723D01*
X204089000Y-103618652D01*
X204089000Y-101854691D01*
X203992327Y-101621302D01*
X203813699Y-101442673D01*
X203580310Y-101346000D01*
X203327691Y-101346000D01*
X202298236Y-101346000D01*
X200202377Y-99250141D01*
X200355528Y-99313735D01*
X200961812Y-99314264D01*
X201522149Y-99082738D01*
X201951231Y-98654404D01*
X202183735Y-98094472D01*
X202184264Y-97488188D01*
X201952738Y-96927851D01*
X201524404Y-96498769D01*
X200964472Y-96266265D01*
X200358188Y-96265736D01*
X199797851Y-96497262D01*
X199368769Y-96925596D01*
X199136265Y-97485528D01*
X199135736Y-98091812D01*
X199367262Y-98652149D01*
X199553263Y-98838474D01*
X199390000Y-98806000D01*
X198257644Y-98806000D01*
X198546825Y-98373210D01*
X198662833Y-97790000D01*
X198546825Y-97206790D01*
X198216464Y-96712369D01*
X197922205Y-96515752D01*
X198271433Y-96237829D01*
X198560593Y-95715878D01*
X198584134Y-95613013D01*
X198463330Y-95377000D01*
X196977000Y-95377000D01*
X196977000Y-95397000D01*
X196723000Y-95397000D01*
X196723000Y-95377000D01*
X195236670Y-95377000D01*
X195115866Y-95613013D01*
X195139407Y-95715878D01*
X195428567Y-96237829D01*
X195777794Y-96515752D01*
X195483536Y-96712369D01*
X195153175Y-97206790D01*
X195037167Y-97790000D01*
X195153175Y-98373210D01*
X195442355Y-98806000D01*
X191503236Y-98806000D01*
X190950653Y-98253417D01*
X191042833Y-97790000D01*
X190926825Y-97206790D01*
X190596464Y-96712369D01*
X190308562Y-96520000D01*
X190596464Y-96327631D01*
X190926825Y-95833210D01*
X191042833Y-95250000D01*
X190926825Y-94666790D01*
X190596464Y-94172369D01*
X190308562Y-93980000D01*
X190596464Y-93787631D01*
X190926825Y-93293210D01*
X191042833Y-92710000D01*
X190926825Y-92126790D01*
X190607657Y-91649120D01*
X190732698Y-91597327D01*
X190911327Y-91418699D01*
X191008000Y-91185310D01*
X191008000Y-90932691D01*
X191008000Y-89154691D01*
X190911327Y-88921302D01*
X190732699Y-88742673D01*
X190499310Y-88646000D01*
X190246691Y-88646000D01*
X187960691Y-88646000D01*
X187727302Y-88742673D01*
X187548673Y-88921301D01*
X187452000Y-89154690D01*
X187452000Y-89407309D01*
X187452000Y-91185309D01*
X187548673Y-91418698D01*
X187727301Y-91597327D01*
X187852342Y-91649121D01*
X187737497Y-91821000D01*
X186944000Y-91821000D01*
X186944000Y-91313406D01*
X187070824Y-91007982D01*
X187071176Y-90603792D01*
X186916825Y-90230234D01*
X186631269Y-89944179D01*
X186257982Y-89789176D01*
X185853792Y-89788824D01*
X185480234Y-89943175D01*
X185194179Y-90228731D01*
X185039264Y-90601806D01*
X185039264Y-89868188D01*
X184807738Y-89307851D01*
X184379404Y-88878769D01*
X183819472Y-88646265D01*
X183213188Y-88645736D01*
X182652851Y-88877262D01*
X182223769Y-89305596D01*
X181991265Y-89865528D01*
X181990736Y-90471812D01*
X182222262Y-91032149D01*
X182650596Y-91461231D01*
X183210528Y-91693735D01*
X183816812Y-91694264D01*
X184377149Y-91462738D01*
X184806231Y-91034404D01*
X185038735Y-90474472D01*
X185039264Y-89868188D01*
X185039264Y-90601806D01*
X185039176Y-90602018D01*
X185038824Y-91006208D01*
X185166000Y-91313997D01*
X185166000Y-92710000D01*
X185166000Y-97281593D01*
X185039177Y-97587013D01*
X185039264Y-97488188D01*
X184807738Y-96927851D01*
X184379404Y-96498769D01*
X183819472Y-96266265D01*
X183213188Y-96265736D01*
X182652851Y-96497262D01*
X182223769Y-96925596D01*
X181991265Y-97485528D01*
X181990736Y-98091812D01*
X182222262Y-98652149D01*
X182629737Y-99060335D01*
X182223769Y-99465596D01*
X181991265Y-100025528D01*
X181990736Y-100631812D01*
X182222262Y-101192149D01*
X182375844Y-101346000D01*
X181978236Y-101346000D01*
X179848779Y-99216543D01*
X179942043Y-99197992D01*
X180436464Y-98867631D01*
X180766825Y-98373210D01*
X180882833Y-97790000D01*
X180766825Y-97206790D01*
X180436464Y-96712369D01*
X180142205Y-96515752D01*
X180491433Y-96237829D01*
X180780593Y-95715878D01*
X180804134Y-95613013D01*
X180683330Y-95377000D01*
X179197000Y-95377000D01*
X179197000Y-95397000D01*
X178943000Y-95397000D01*
X178943000Y-95377000D01*
X177456670Y-95377000D01*
X177335866Y-95613013D01*
X177359407Y-95715878D01*
X177648567Y-96237829D01*
X177997794Y-96515752D01*
X177703536Y-96712369D01*
X177373175Y-97206790D01*
X177257167Y-97790000D01*
X177373175Y-98373210D01*
X177662355Y-98806000D01*
X172857644Y-98806000D01*
X173146825Y-98373210D01*
X173262833Y-97790000D01*
X173146825Y-97206790D01*
X172816464Y-96712369D01*
X172528562Y-96520000D01*
X172816464Y-96327631D01*
X173146825Y-95833210D01*
X173262833Y-95250000D01*
X173228000Y-95074883D01*
X173228000Y-91185310D01*
X173228000Y-90932691D01*
X173228000Y-89154691D01*
X173131327Y-88921302D01*
X172952699Y-88742673D01*
X172719310Y-88646000D01*
X172466691Y-88646000D01*
X170180691Y-88646000D01*
X169947302Y-88742673D01*
X169768673Y-88921301D01*
X169672000Y-89154690D01*
X169672000Y-89407309D01*
X169672000Y-91185309D01*
X169768673Y-91418698D01*
X169947301Y-91597327D01*
X170103922Y-91662201D01*
X170028567Y-91722171D01*
X169739407Y-92244122D01*
X169715866Y-92346987D01*
X169836670Y-92583000D01*
X171323000Y-92583000D01*
X171323000Y-92563000D01*
X171577000Y-92563000D01*
X171577000Y-92583000D01*
X173063330Y-92583000D01*
X173184134Y-92346987D01*
X173160593Y-92244122D01*
X172871433Y-91722171D01*
X172796077Y-91662201D01*
X172952698Y-91597327D01*
X173131327Y-91418699D01*
X173228000Y-91185310D01*
X173228000Y-95074883D01*
X173146825Y-94666790D01*
X172816464Y-94172369D01*
X172522205Y-93975752D01*
X172871433Y-93697829D01*
X173160593Y-93175878D01*
X173184134Y-93073013D01*
X173063330Y-92837000D01*
X171577000Y-92837000D01*
X171577000Y-92857000D01*
X171323000Y-92857000D01*
X171323000Y-92837000D01*
X169836670Y-92837000D01*
X169715866Y-93073013D01*
X169739407Y-93175878D01*
X170028567Y-93697829D01*
X170377794Y-93975752D01*
X170083536Y-94172369D01*
X169753175Y-94666790D01*
X169637167Y-95250000D01*
X169753175Y-95833210D01*
X170083536Y-96327631D01*
X170371437Y-96520000D01*
X170083536Y-96712369D01*
X169753175Y-97206790D01*
X169637167Y-97790000D01*
X169753175Y-98373210D01*
X170083536Y-98867631D01*
X170561000Y-99186661D01*
X170561000Y-99326764D01*
X169176764Y-100711000D01*
X169164264Y-100711000D01*
X169164264Y-93678188D01*
X169164264Y-88598188D01*
X168932738Y-88037851D01*
X168504404Y-87608769D01*
X167944472Y-87376265D01*
X167338188Y-87375736D01*
X166777851Y-87607262D01*
X166348769Y-88035596D01*
X166116265Y-88595528D01*
X166115736Y-89201812D01*
X166347262Y-89762149D01*
X166775596Y-90191231D01*
X167335528Y-90423735D01*
X167941812Y-90424264D01*
X168502149Y-90192738D01*
X168931231Y-89764404D01*
X169163735Y-89204472D01*
X169164264Y-88598188D01*
X169164264Y-93678188D01*
X168932738Y-93117851D01*
X168504404Y-92688769D01*
X167944472Y-92456265D01*
X167338188Y-92455736D01*
X166777851Y-92687262D01*
X166348769Y-93115596D01*
X166116265Y-93675528D01*
X166115736Y-94281812D01*
X166347262Y-94842149D01*
X166775596Y-95271231D01*
X167335528Y-95503735D01*
X167941812Y-95504264D01*
X168502149Y-95272738D01*
X168931231Y-94844404D01*
X169163735Y-94284472D01*
X169164264Y-93678188D01*
X169164264Y-100711000D01*
X168144370Y-100711000D01*
X168296231Y-100559404D01*
X168528735Y-99999472D01*
X168529264Y-99393188D01*
X168297738Y-98832851D01*
X167869404Y-98403769D01*
X167309472Y-98171265D01*
X166703188Y-98170736D01*
X166142851Y-98402262D01*
X165713769Y-98830596D01*
X165481265Y-99390528D01*
X165480736Y-99996812D01*
X165712262Y-100557149D01*
X165865844Y-100711000D01*
X165735000Y-100711000D01*
X165394795Y-100778670D01*
X165354264Y-100805752D01*
X165354264Y-96218188D01*
X165354264Y-88598188D01*
X165122738Y-88037851D01*
X164694404Y-87608769D01*
X164134472Y-87376265D01*
X163528188Y-87375736D01*
X162967851Y-87607262D01*
X162538769Y-88035596D01*
X162306265Y-88595528D01*
X162305736Y-89201812D01*
X162537262Y-89762149D01*
X162965596Y-90191231D01*
X163525528Y-90423735D01*
X164131812Y-90424264D01*
X164692149Y-90192738D01*
X165121231Y-89764404D01*
X165353735Y-89204472D01*
X165354264Y-88598188D01*
X165354264Y-96218188D01*
X165122738Y-95657851D01*
X164694404Y-95228769D01*
X164134472Y-94996265D01*
X163528188Y-94995736D01*
X162967851Y-95227262D01*
X162538769Y-95655596D01*
X162306265Y-96215528D01*
X162305736Y-96821812D01*
X162537262Y-97382149D01*
X162965596Y-97811231D01*
X163525528Y-98043735D01*
X164131812Y-98044264D01*
X164692149Y-97812738D01*
X165121231Y-97384404D01*
X165353735Y-96824472D01*
X165354264Y-96218188D01*
X165354264Y-100805752D01*
X165106382Y-100971382D01*
X162179264Y-103898500D01*
X162179264Y-96218188D01*
X162179264Y-88598188D01*
X161947738Y-88037851D01*
X161519404Y-87608769D01*
X160959472Y-87376265D01*
X160353188Y-87375736D01*
X159792851Y-87607262D01*
X159363769Y-88035596D01*
X159131265Y-88595528D01*
X159130736Y-89201812D01*
X159362262Y-89762149D01*
X159790596Y-90191231D01*
X160350528Y-90423735D01*
X160956812Y-90424264D01*
X161517149Y-90192738D01*
X161946231Y-89764404D01*
X162178735Y-89204472D01*
X162179264Y-88598188D01*
X162179264Y-96218188D01*
X161947738Y-95657851D01*
X161519404Y-95228769D01*
X160959472Y-94996265D01*
X160353188Y-94995736D01*
X159792851Y-95227262D01*
X159363769Y-95655596D01*
X159131265Y-96215528D01*
X159130736Y-96821812D01*
X159362262Y-97382149D01*
X159790596Y-97811231D01*
X160350528Y-98043735D01*
X160956812Y-98044264D01*
X161517149Y-97812738D01*
X161946231Y-97384404D01*
X162178735Y-96824472D01*
X162179264Y-96218188D01*
X162179264Y-103898500D01*
X161556764Y-104521000D01*
X161290000Y-104521000D01*
X160524370Y-104521000D01*
X160676231Y-104369404D01*
X160908735Y-103809472D01*
X160909264Y-103203188D01*
X160677738Y-102642851D01*
X160249404Y-102213769D01*
X159689472Y-101981265D01*
X159083188Y-101980736D01*
X158522851Y-102212262D01*
X158093769Y-102640596D01*
X157861265Y-103200528D01*
X157860736Y-103806812D01*
X158092262Y-104367149D01*
X158245844Y-104521000D01*
X157848236Y-104521000D01*
X155117377Y-101790141D01*
X155270528Y-101853735D01*
X155876812Y-101854264D01*
X156437149Y-101622738D01*
X156866231Y-101194404D01*
X157098735Y-100634472D01*
X157099264Y-100028188D01*
X156867738Y-99467851D01*
X156439404Y-99038769D01*
X155879472Y-98806265D01*
X155273188Y-98805736D01*
X154712851Y-99037262D01*
X154283769Y-99465596D01*
X154051265Y-100025528D01*
X154050736Y-100631812D01*
X154115296Y-100788060D01*
X149675653Y-96348417D01*
X149767833Y-95885000D01*
X149651825Y-95301790D01*
X149321464Y-94807369D01*
X149033562Y-94615000D01*
X149321464Y-94422631D01*
X149651825Y-93928210D01*
X149767833Y-93345000D01*
X149651825Y-92761790D01*
X149321464Y-92267369D01*
X149033562Y-92075000D01*
X149321464Y-91882631D01*
X149651825Y-91388210D01*
X149767833Y-90805000D01*
X149651825Y-90221790D01*
X149332657Y-89744120D01*
X149457698Y-89692327D01*
X149636327Y-89513699D01*
X149733000Y-89280310D01*
X149733000Y-89027691D01*
X149733000Y-87249691D01*
X149636327Y-87016302D01*
X149457699Y-86837673D01*
X149224310Y-86741000D01*
X148971691Y-86741000D01*
X146685691Y-86741000D01*
X146452302Y-86837673D01*
X146273673Y-87016301D01*
X146177000Y-87249690D01*
X146177000Y-87502309D01*
X146177000Y-89280309D01*
X146273673Y-89513698D01*
X146452301Y-89692327D01*
X146577342Y-89744121D01*
X146258175Y-90221790D01*
X146142167Y-90805000D01*
X146258175Y-91388210D01*
X146588536Y-91882631D01*
X146876437Y-92075000D01*
X146588536Y-92267369D01*
X146258175Y-92761790D01*
X146142167Y-93345000D01*
X146258175Y-93928210D01*
X146588536Y-94422631D01*
X146876437Y-94615000D01*
X146588536Y-94807369D01*
X146258175Y-95301790D01*
X146142167Y-95885000D01*
X146258175Y-96468210D01*
X146588536Y-96962631D01*
X147082957Y-97292992D01*
X147666167Y-97409000D01*
X148221764Y-97409000D01*
X153676382Y-102863618D01*
X156851382Y-106038618D01*
X157139794Y-106231329D01*
X157139795Y-106231329D01*
X157480000Y-106299000D01*
X158395091Y-106299000D01*
X158161702Y-106395673D01*
X157983073Y-106574301D01*
X157886400Y-106807690D01*
X157886400Y-107060309D01*
X157886400Y-109092309D01*
X157983073Y-109325698D01*
X158161701Y-109504327D01*
X158395090Y-109601000D01*
X158647709Y-109601000D01*
X160374909Y-109601000D01*
X160608298Y-109504327D01*
X160786927Y-109325699D01*
X160868758Y-109128139D01*
X161022964Y-109300732D01*
X161550209Y-109554709D01*
X161565974Y-109557358D01*
X161798000Y-109436217D01*
X161798000Y-108077000D01*
X161778000Y-108077000D01*
X161778000Y-107823000D01*
X161798000Y-107823000D01*
X161798000Y-106463783D01*
X161565974Y-106342642D01*
X161550209Y-106345291D01*
X161022964Y-106599268D01*
X160868758Y-106771860D01*
X160786927Y-106574302D01*
X160608299Y-106395673D01*
X160374910Y-106299000D01*
X161290000Y-106299000D01*
X161925000Y-106299000D01*
X162265205Y-106231329D01*
X162265206Y-106231329D01*
X162553618Y-106038618D01*
X165544858Y-103047377D01*
X165481265Y-103200528D01*
X165480736Y-103806812D01*
X165712262Y-104367149D01*
X166140596Y-104796231D01*
X166700528Y-105028735D01*
X166763973Y-105028790D01*
X166376382Y-105416382D01*
X166183671Y-105704794D01*
X166116000Y-106045000D01*
X166116000Y-106299000D01*
X166015091Y-106299000D01*
X165781702Y-106395673D01*
X165603073Y-106574301D01*
X165539499Y-106727779D01*
X165524670Y-106705585D01*
X165038489Y-106380729D01*
X164465000Y-106266655D01*
X163891511Y-106380729D01*
X163405330Y-106705585D01*
X163198539Y-107015069D01*
X162827036Y-106599268D01*
X162299791Y-106345291D01*
X162284026Y-106342642D01*
X162052000Y-106463783D01*
X162052000Y-107823000D01*
X162072000Y-107823000D01*
X162072000Y-108077000D01*
X162052000Y-108077000D01*
X162052000Y-109436217D01*
X162284026Y-109557358D01*
X162299791Y-109554709D01*
X162827036Y-109300732D01*
X163198539Y-108884930D01*
X163405330Y-109194415D01*
X163891511Y-109519271D01*
X164465000Y-109633345D01*
X165038489Y-109519271D01*
X165524670Y-109194415D01*
X165539500Y-109172219D01*
X165603073Y-109325698D01*
X165781701Y-109504327D01*
X166015090Y-109601000D01*
X166267709Y-109601000D01*
X167994909Y-109601000D01*
X168228298Y-109504327D01*
X168406927Y-109325699D01*
X168470500Y-109172220D01*
X168485330Y-109194415D01*
X168971511Y-109519271D01*
X169545000Y-109633345D01*
X170118489Y-109519271D01*
X170604670Y-109194415D01*
X170815000Y-108879634D01*
X171025330Y-109194415D01*
X171511511Y-109519271D01*
X172085000Y-109633345D01*
X172658489Y-109519271D01*
X173144670Y-109194415D01*
X173159500Y-109172219D01*
X173223073Y-109325698D01*
X173401701Y-109504327D01*
X173635090Y-109601000D01*
X173887709Y-109601000D01*
X175614909Y-109601000D01*
X175848298Y-109504327D01*
X176026927Y-109325699D01*
X176090500Y-109172220D01*
X176105330Y-109194415D01*
X176591511Y-109519271D01*
X177165000Y-109633345D01*
X177738489Y-109519271D01*
X178224670Y-109194415D01*
X178435000Y-108879634D01*
X178645330Y-109194415D01*
X179131511Y-109519271D01*
X179705000Y-109633345D01*
X180278489Y-109519271D01*
X180764670Y-109194415D01*
X181089526Y-108708234D01*
X181203600Y-108134745D01*
X181203600Y-107765255D01*
X181089526Y-107191766D01*
X180764670Y-106705585D01*
X180278489Y-106380729D01*
X179867609Y-106299000D01*
X183781764Y-106299000D01*
X183972622Y-106489858D01*
X183819472Y-106426265D01*
X183213188Y-106425736D01*
X182652851Y-106657262D01*
X182223769Y-107085596D01*
X181991265Y-107645528D01*
X181990736Y-108251812D01*
X182222262Y-108812149D01*
X182650596Y-109241231D01*
X183210528Y-109473735D01*
X183816812Y-109474264D01*
X184377149Y-109242738D01*
X184806231Y-108814404D01*
X185038735Y-108254472D01*
X185039264Y-107648188D01*
X185026209Y-107616592D01*
X185217018Y-107695824D01*
X185621208Y-107696176D01*
X185813169Y-107616859D01*
X185801265Y-107645528D01*
X185800736Y-108251812D01*
X186032262Y-108812149D01*
X186460596Y-109241231D01*
X187020528Y-109473735D01*
X187626812Y-109474264D01*
X188187149Y-109242738D01*
X188616231Y-108814404D01*
X188848735Y-108254472D01*
X188849264Y-107648188D01*
X188849264Y-104473188D01*
X188617738Y-103912851D01*
X188189404Y-103483769D01*
X187629472Y-103251265D01*
X187023188Y-103250736D01*
X186462851Y-103482262D01*
X186033769Y-103910596D01*
X185801265Y-104470528D01*
X185800736Y-105076812D01*
X186032262Y-105637149D01*
X186460596Y-106066231D01*
X187020528Y-106298735D01*
X187626812Y-106299264D01*
X188187149Y-106067738D01*
X188616231Y-105639404D01*
X188848735Y-105079472D01*
X188849264Y-104473188D01*
X188849264Y-107648188D01*
X188617738Y-107087851D01*
X188189404Y-106658769D01*
X187629472Y-106426265D01*
X187023188Y-106425736D01*
X186462851Y-106657262D01*
X186435997Y-106684068D01*
X186436176Y-106478792D01*
X186281825Y-106105234D01*
X185996269Y-105819179D01*
X185688701Y-105691465D01*
X184778618Y-104781382D01*
X184490206Y-104588671D01*
X184150000Y-104521000D01*
X179324264Y-104521000D01*
X179324264Y-101933188D01*
X179092738Y-101372851D01*
X178664404Y-100943769D01*
X178104472Y-100711265D01*
X177498188Y-100710736D01*
X176937851Y-100942262D01*
X176508769Y-101370596D01*
X176276265Y-101930528D01*
X176275736Y-102536812D01*
X176507262Y-103097149D01*
X176935596Y-103526231D01*
X177495528Y-103758735D01*
X178101812Y-103759264D01*
X178662149Y-103527738D01*
X179091231Y-103099404D01*
X179323735Y-102539472D01*
X179324264Y-101933188D01*
X179324264Y-104521000D01*
X174244264Y-104521000D01*
X174244264Y-101933188D01*
X174012738Y-101372851D01*
X173584404Y-100943769D01*
X173024472Y-100711265D01*
X172418188Y-100710736D01*
X171857851Y-100942262D01*
X171428769Y-101370596D01*
X171196265Y-101930528D01*
X171195736Y-102536812D01*
X171427262Y-103097149D01*
X171855596Y-103526231D01*
X172415528Y-103758735D01*
X173021812Y-103759264D01*
X173582149Y-103527738D01*
X174011231Y-103099404D01*
X174243735Y-102539472D01*
X174244264Y-101933188D01*
X174244264Y-104521000D01*
X168144370Y-104521000D01*
X168296231Y-104369404D01*
X168528735Y-103809472D01*
X168529264Y-103203188D01*
X168297738Y-102642851D01*
X168144155Y-102489000D01*
X169545000Y-102489000D01*
X169885205Y-102421329D01*
X169885206Y-102421329D01*
X170173618Y-102228618D01*
X171818236Y-100584000D01*
X178701764Y-100584000D01*
X180981382Y-102863618D01*
X181269794Y-103056329D01*
X181610000Y-103124000D01*
X184150000Y-103124000D01*
X184490205Y-103056329D01*
X184490206Y-103056329D01*
X184778618Y-102863618D01*
X185800788Y-101841447D01*
X185800736Y-101901812D01*
X186032262Y-102462149D01*
X186460596Y-102891231D01*
X187020528Y-103123735D01*
X187626812Y-103124264D01*
X188187149Y-102892738D01*
X188616231Y-102464404D01*
X188848735Y-101904472D01*
X188849264Y-101298188D01*
X188617738Y-100737851D01*
X188189404Y-100308769D01*
X187629472Y-100076265D01*
X187566026Y-100076209D01*
X188429928Y-99212307D01*
X188941167Y-99314000D01*
X189496764Y-99314000D01*
X190506382Y-100323618D01*
X190794794Y-100516329D01*
X190794795Y-100516329D01*
X191135000Y-100584000D01*
X193767032Y-100584000D01*
X193758212Y-100592820D01*
X193872801Y-100707409D01*
X193617461Y-100792467D01*
X193409484Y-101361965D01*
X193435277Y-101967700D01*
X193617461Y-102407533D01*
X193872804Y-102492591D01*
X194765395Y-101600000D01*
X194751252Y-101585857D01*
X194930857Y-101406252D01*
X194945000Y-101420395D01*
X194959142Y-101406252D01*
X195138747Y-101585857D01*
X195124605Y-101600000D01*
X196017196Y-102492591D01*
X196272539Y-102407533D01*
X196480516Y-101838035D01*
X196454723Y-101232300D01*
X196272539Y-100792467D01*
X196017198Y-100707409D01*
X196131788Y-100592820D01*
X196122968Y-100584000D01*
X199021764Y-100584000D01*
X199792292Y-101354528D01*
X199657300Y-101360277D01*
X199217467Y-101542461D01*
X199132409Y-101797804D01*
X200025000Y-102690395D01*
X200039142Y-102676252D01*
X200218747Y-102855857D01*
X200204605Y-102870000D01*
X200218747Y-102884142D01*
X200039142Y-103063747D01*
X200025000Y-103049605D01*
X199845395Y-103229210D01*
X199845395Y-102870000D01*
X198952804Y-101977409D01*
X198697461Y-102062467D01*
X198489484Y-102631965D01*
X198515277Y-103237700D01*
X198697461Y-103677533D01*
X198952804Y-103762591D01*
X199845395Y-102870000D01*
X199845395Y-103229210D01*
X199132409Y-103942196D01*
X199217467Y-104197539D01*
X199786965Y-104405516D01*
X200392700Y-104379723D01*
X200832533Y-104197539D01*
X200917590Y-103942198D01*
X200917591Y-103942199D01*
X201032180Y-104056788D01*
X201088641Y-104000326D01*
X201137673Y-104118698D01*
X201316301Y-104297327D01*
X201549690Y-104394000D01*
X201802309Y-104394000D01*
X203564753Y-104394000D01*
X203470510Y-104867795D01*
X203470510Y-105952205D01*
X203563516Y-106419782D01*
X203192380Y-106315510D01*
X202692000Y-106315510D01*
X202692000Y-107823000D01*
X204535645Y-107823000D01*
X204654999Y-107569646D01*
X204636565Y-107493517D01*
X205105000Y-107586695D01*
X205558514Y-107496485D01*
X205468305Y-107950000D01*
X205592723Y-108575492D01*
X205947036Y-109105759D01*
X206477303Y-109460072D01*
X207102795Y-109584490D01*
X208187205Y-109584490D01*
X208812697Y-109460072D01*
X209342964Y-109105759D01*
X209697277Y-108575492D01*
X209821695Y-107950000D01*
X209821695Y-112345000D01*
X204654999Y-112345000D01*
X204654999Y-108330354D01*
X204535645Y-108077000D01*
X202692000Y-108077000D01*
X202692000Y-109584490D01*
X203192380Y-109584490D01*
X203808205Y-109411471D01*
X204310942Y-109015956D01*
X204624053Y-108458159D01*
X204654999Y-108330354D01*
X204654999Y-112345000D01*
X202438000Y-112345000D01*
X202438000Y-109584490D01*
X202438000Y-108077000D01*
X202438000Y-107823000D01*
X202438000Y-106315510D01*
X201937620Y-106315510D01*
X201321795Y-106488529D01*
X200917591Y-106806525D01*
X200819058Y-106884044D01*
X200505947Y-107441841D01*
X200475001Y-107569646D01*
X200594355Y-107823000D01*
X202438000Y-107823000D01*
X202438000Y-108077000D01*
X200594355Y-108077000D01*
X200475001Y-108330354D01*
X200505947Y-108458159D01*
X200819058Y-109015956D01*
X201321795Y-109411471D01*
X201937620Y-109584490D01*
X202438000Y-109584490D01*
X202438000Y-112345000D01*
X199644264Y-112345000D01*
X199644264Y-105743188D01*
X199412738Y-105182851D01*
X198984404Y-104753769D01*
X198424472Y-104521265D01*
X197818188Y-104520736D01*
X197257851Y-104752262D01*
X196828769Y-105180596D01*
X196596265Y-105740528D01*
X196595736Y-106346812D01*
X196827262Y-106907149D01*
X197017073Y-107097291D01*
X196871301Y-107157673D01*
X196692673Y-107336302D01*
X196596000Y-107569691D01*
X196596000Y-108299250D01*
X196754750Y-108458000D01*
X197993000Y-108458000D01*
X197993000Y-108438000D01*
X198247000Y-108438000D01*
X198247000Y-108458000D01*
X199485250Y-108458000D01*
X199644000Y-108299250D01*
X199644000Y-107569691D01*
X199547327Y-107336302D01*
X199368699Y-107157673D01*
X199222988Y-107097317D01*
X199411231Y-106909404D01*
X199643735Y-106349472D01*
X199644264Y-105743188D01*
X199644264Y-112345000D01*
X199644000Y-112345000D01*
X199644000Y-109600309D01*
X199644000Y-108870750D01*
X199485250Y-108712000D01*
X198247000Y-108712000D01*
X198247000Y-109950250D01*
X198405750Y-110109000D01*
X198882691Y-110109000D01*
X199135310Y-110109000D01*
X199368699Y-110012327D01*
X199547327Y-109833698D01*
X199644000Y-109600309D01*
X199644000Y-112345000D01*
X197993000Y-112345000D01*
X197993000Y-109950250D01*
X197993000Y-108712000D01*
X196754750Y-108712000D01*
X196596000Y-108870750D01*
X196596000Y-109600309D01*
X196692673Y-109833698D01*
X196871301Y-110012327D01*
X197104690Y-110109000D01*
X197357309Y-110109000D01*
X197834250Y-110109000D01*
X197993000Y-109950250D01*
X197993000Y-112345000D01*
X196480516Y-112345000D01*
X196469264Y-112345000D01*
X196469264Y-107648188D01*
X196469264Y-104473188D01*
X196237738Y-103912851D01*
X195837591Y-103512005D01*
X195837591Y-102672196D01*
X194945000Y-101779605D01*
X194765395Y-101959210D01*
X194052409Y-102672196D01*
X194137467Y-102927539D01*
X194706965Y-103135516D01*
X195312700Y-103109723D01*
X195752533Y-102927539D01*
X195837591Y-102672196D01*
X195837591Y-103512005D01*
X195809404Y-103483769D01*
X195249472Y-103251265D01*
X194643188Y-103250736D01*
X194082851Y-103482262D01*
X193653769Y-103910596D01*
X193421265Y-104470528D01*
X193420736Y-105076812D01*
X193652262Y-105637149D01*
X194080596Y-106066231D01*
X194640528Y-106298735D01*
X195246812Y-106299264D01*
X195807149Y-106067738D01*
X196236231Y-105639404D01*
X196468735Y-105079472D01*
X196469264Y-104473188D01*
X196469264Y-107648188D01*
X196237738Y-107087851D01*
X195809404Y-106658769D01*
X195249472Y-106426265D01*
X194643188Y-106425736D01*
X194082851Y-106657262D01*
X193653769Y-107085596D01*
X193421265Y-107645528D01*
X193420736Y-108251812D01*
X193652262Y-108812149D01*
X194080596Y-109241231D01*
X194640528Y-109473735D01*
X195246812Y-109474264D01*
X195807149Y-109242738D01*
X196236231Y-108814404D01*
X196468735Y-108254472D01*
X196469264Y-107648188D01*
X196469264Y-112345000D01*
X155803600Y-112345000D01*
X155803600Y-108134745D01*
X155803600Y-107765255D01*
X155689526Y-107191766D01*
X155364670Y-106705585D01*
X154878489Y-106380729D01*
X154305000Y-106266655D01*
X153731511Y-106380729D01*
X153245330Y-106705585D01*
X153038539Y-107015069D01*
X152667036Y-106599268D01*
X152139791Y-106345291D01*
X152124026Y-106342642D01*
X151892000Y-106463783D01*
X151892000Y-107823000D01*
X151912000Y-107823000D01*
X151912000Y-108077000D01*
X151892000Y-108077000D01*
X151892000Y-109436217D01*
X152124026Y-109557358D01*
X152139791Y-109554709D01*
X152667036Y-109300732D01*
X153038539Y-108884930D01*
X153245330Y-109194415D01*
X153731511Y-109519271D01*
X154305000Y-109633345D01*
X154878489Y-109519271D01*
X155364670Y-109194415D01*
X155689526Y-108708234D01*
X155803600Y-108134745D01*
X155803600Y-112345000D01*
X151638000Y-112345000D01*
X151638000Y-109436217D01*
X151638000Y-108077000D01*
X151638000Y-107823000D01*
X151638000Y-106463783D01*
X151405974Y-106342642D01*
X151390209Y-106345291D01*
X150862964Y-106599268D01*
X150708758Y-106771860D01*
X150626927Y-106574301D01*
X150448298Y-106395673D01*
X150214909Y-106299000D01*
X149510750Y-106299000D01*
X149490516Y-106319234D01*
X149490516Y-100568035D01*
X149464723Y-99962300D01*
X149282539Y-99522467D01*
X149027196Y-99437409D01*
X148847591Y-99617014D01*
X148847591Y-99257804D01*
X148762533Y-99002461D01*
X148193035Y-98794484D01*
X147587300Y-98820277D01*
X147147467Y-99002461D01*
X147062409Y-99257804D01*
X147955000Y-100150395D01*
X148847591Y-99257804D01*
X148847591Y-99617014D01*
X148134605Y-100330000D01*
X149027196Y-101222591D01*
X149282539Y-101137533D01*
X149490516Y-100568035D01*
X149490516Y-106319234D01*
X149352000Y-106457750D01*
X149352000Y-107823000D01*
X150424076Y-107823000D01*
X150564850Y-107823000D01*
X151638000Y-107823000D01*
X151638000Y-108077000D01*
X150564850Y-108077000D01*
X150424076Y-108077000D01*
X149352000Y-108077000D01*
X149352000Y-109442250D01*
X149510750Y-109601000D01*
X150214909Y-109601000D01*
X150448298Y-109504327D01*
X150626927Y-109325699D01*
X150708758Y-109128139D01*
X150862964Y-109300732D01*
X151390209Y-109554709D01*
X151405974Y-109557358D01*
X151638000Y-109436217D01*
X151638000Y-112345000D01*
X149098000Y-112345000D01*
X149098000Y-109442250D01*
X149098000Y-108077000D01*
X149098000Y-107823000D01*
X149098000Y-106457750D01*
X148939250Y-106299000D01*
X148847591Y-106299000D01*
X148847591Y-101402196D01*
X147955000Y-100509605D01*
X147775395Y-100689210D01*
X147775395Y-100330000D01*
X146882804Y-99437409D01*
X146627461Y-99522467D01*
X146419484Y-100091965D01*
X146445277Y-100697700D01*
X146627461Y-101137533D01*
X146882804Y-101222591D01*
X147775395Y-100330000D01*
X147775395Y-100689210D01*
X147062409Y-101402196D01*
X147147467Y-101657539D01*
X147716965Y-101865516D01*
X148322700Y-101839723D01*
X148762533Y-101657539D01*
X148847591Y-101402196D01*
X148847591Y-106299000D01*
X148235091Y-106299000D01*
X148001702Y-106395673D01*
X147823073Y-106574301D01*
X147726400Y-106807690D01*
X147726400Y-107060309D01*
X147726400Y-107664250D01*
X147885150Y-107823000D01*
X149098000Y-107823000D01*
X149098000Y-108077000D01*
X147885150Y-108077000D01*
X147726400Y-108235750D01*
X147726400Y-108839691D01*
X147726400Y-109092310D01*
X147823073Y-109325699D01*
X148001702Y-109504327D01*
X148235091Y-109601000D01*
X148939250Y-109601000D01*
X149098000Y-109442250D01*
X149098000Y-112345000D01*
X145796000Y-112345000D01*
X145796000Y-107187309D01*
X145796000Y-106330750D01*
X145796000Y-105759250D01*
X145796000Y-104902691D01*
X145699327Y-104669302D01*
X145520699Y-104490673D01*
X145469628Y-104469518D01*
X145670325Y-104169155D01*
X145796000Y-103537345D01*
X145796000Y-103472655D01*
X145670325Y-102840845D01*
X145669264Y-102839257D01*
X145669264Y-98758188D01*
X145669264Y-93678188D01*
X145669264Y-90503188D01*
X145669264Y-82883188D01*
X145437738Y-82322851D01*
X145009404Y-81893769D01*
X144449472Y-81661265D01*
X143843188Y-81660736D01*
X143282851Y-81892262D01*
X142853769Y-82320596D01*
X142621265Y-82880528D01*
X142620736Y-83486812D01*
X142852262Y-84047149D01*
X143280596Y-84476231D01*
X143840528Y-84708735D01*
X144446812Y-84709264D01*
X145007149Y-84477738D01*
X145436231Y-84049404D01*
X145668735Y-83489472D01*
X145669264Y-82883188D01*
X145669264Y-90503188D01*
X145437738Y-89942851D01*
X145009404Y-89513769D01*
X144449472Y-89281265D01*
X143843188Y-89280736D01*
X143282851Y-89512262D01*
X142853769Y-89940596D01*
X142621265Y-90500528D01*
X142620736Y-91106812D01*
X142852262Y-91667149D01*
X143280596Y-92096231D01*
X143840528Y-92328735D01*
X144446812Y-92329264D01*
X145007149Y-92097738D01*
X145436231Y-91669404D01*
X145668735Y-91109472D01*
X145669264Y-90503188D01*
X145669264Y-93678188D01*
X145437738Y-93117851D01*
X145009404Y-92688769D01*
X144449472Y-92456265D01*
X143843188Y-92455736D01*
X143282851Y-92687262D01*
X142853769Y-93115596D01*
X142621265Y-93675528D01*
X142620736Y-94281812D01*
X142852262Y-94842149D01*
X143280596Y-95271231D01*
X143840528Y-95503735D01*
X144446812Y-95504264D01*
X145007149Y-95272738D01*
X145436231Y-94844404D01*
X145668735Y-94284472D01*
X145669264Y-93678188D01*
X145669264Y-98758188D01*
X145437738Y-98197851D01*
X145009404Y-97768769D01*
X144449472Y-97536265D01*
X143843188Y-97535736D01*
X143282851Y-97767262D01*
X142853769Y-98195596D01*
X142621265Y-98755528D01*
X142620736Y-99361812D01*
X142852262Y-99922149D01*
X143280596Y-100351231D01*
X143840528Y-100583735D01*
X144446812Y-100584264D01*
X145007149Y-100352738D01*
X145436231Y-99924404D01*
X145668735Y-99364472D01*
X145669264Y-98758188D01*
X145669264Y-102839257D01*
X145312433Y-102305222D01*
X144776810Y-101947330D01*
X144145000Y-101821655D01*
X143513190Y-101947330D01*
X142977567Y-102305222D01*
X142619675Y-102840845D01*
X142494000Y-103472655D01*
X142494000Y-103537345D01*
X142619675Y-104169155D01*
X142820371Y-104469518D01*
X142769301Y-104490673D01*
X142590673Y-104669302D01*
X142494000Y-104902691D01*
X142494000Y-105759250D01*
X142652750Y-105918000D01*
X144018000Y-105918000D01*
X144018000Y-105898000D01*
X144272000Y-105898000D01*
X144272000Y-105918000D01*
X145637250Y-105918000D01*
X145796000Y-105759250D01*
X145796000Y-106330750D01*
X145637250Y-106172000D01*
X144272000Y-106172000D01*
X144272000Y-107537250D01*
X144430750Y-107696000D01*
X145034691Y-107696000D01*
X145287310Y-107696000D01*
X145520699Y-107599327D01*
X145699327Y-107420698D01*
X145796000Y-107187309D01*
X145796000Y-112345000D01*
X143907724Y-112345000D01*
X144184677Y-111930512D01*
X144344903Y-111125000D01*
X144184677Y-110319488D01*
X144018000Y-110070038D01*
X144018000Y-107537250D01*
X144018000Y-106172000D01*
X142652750Y-106172000D01*
X142494000Y-106330750D01*
X142494000Y-107187309D01*
X142590673Y-107420698D01*
X142769301Y-107599327D01*
X143002690Y-107696000D01*
X143255309Y-107696000D01*
X143859250Y-107696000D01*
X144018000Y-107537250D01*
X144018000Y-110070038D01*
X143728391Y-109636609D01*
X143045512Y-109180323D01*
X142240000Y-109020097D01*
X141434488Y-109180323D01*
X141020000Y-109457275D01*
X141020000Y-81677724D01*
X141434488Y-81954677D01*
X142240000Y-82114903D01*
X143045512Y-81954677D01*
X143728391Y-81498391D01*
X144184677Y-80815512D01*
X144344903Y-80010000D01*
X144184677Y-79204488D01*
X143907724Y-78790000D01*
X214232275Y-78790000D01*
X213955323Y-79204488D01*
X213795097Y-80010000D01*
X213955323Y-80815512D01*
X214411609Y-81498391D01*
X215094488Y-81954677D01*
X215900000Y-82114903D01*
X216705512Y-81954677D01*
X217120000Y-81677724D01*
X217120000Y-109457275D01*
M02*
