%FSLAX46Y46*%
G04 Gerber Fmt 4.6, Leading zero omitted, Abs format (unit mm)*
G04 Created by KiCad (PCBNEW (2014-09-19 BZR 5142)-product) date 11/10/2014 22:22:43*
%MOMM*%
G01*
G04 APERTURE LIST*
%ADD10C,0.100000*%
%ADD11C,0.300000*%
%ADD12C,1.778000*%
%ADD13R,1.778000X1.778000*%
%ADD14R,2.032000X2.032000*%
%ADD15O,2.032000X2.032000*%
%ADD16R,2.235200X2.235200*%
%ADD17R,1.727200X2.032000*%
%ADD18O,1.727200X2.032000*%
%ADD19R,2.032000X1.727200*%
%ADD20O,2.032000X1.727200*%
%ADD21R,2.286000X1.778000*%
%ADD22O,2.286000X1.778000*%
%ADD23O,1.998980X2.999740*%
%ADD24O,2.999740X1.998980*%
G04 APERTURE END LIST*
D10*
D11*
X211535000Y-110303571D02*
X211249286Y-110303571D01*
X211106428Y-110375000D01*
X210963571Y-110517857D01*
X210892143Y-110803571D01*
X210892143Y-111303571D01*
X210963571Y-111589286D01*
X211106428Y-111732143D01*
X211249286Y-111803571D01*
X211535000Y-111803571D01*
X211677857Y-111732143D01*
X211820714Y-111589286D01*
X211892143Y-111303571D01*
X211892143Y-110803571D01*
X211820714Y-110517857D01*
X211677857Y-110375000D01*
X211535000Y-110303571D01*
X210249285Y-110803571D02*
X210249285Y-112303571D01*
X210249285Y-110875000D02*
X210106428Y-110803571D01*
X209820714Y-110803571D01*
X209677857Y-110875000D01*
X209606428Y-110946429D01*
X209534999Y-111089286D01*
X209534999Y-111517857D01*
X209606428Y-111660714D01*
X209677857Y-111732143D01*
X209820714Y-111803571D01*
X210106428Y-111803571D01*
X210249285Y-111732143D01*
X208320714Y-111732143D02*
X208463571Y-111803571D01*
X208749285Y-111803571D01*
X208892142Y-111732143D01*
X208963571Y-111589286D01*
X208963571Y-111017857D01*
X208892142Y-110875000D01*
X208749285Y-110803571D01*
X208463571Y-110803571D01*
X208320714Y-110875000D01*
X208249285Y-111017857D01*
X208249285Y-111160714D01*
X208963571Y-111303571D01*
X207606428Y-110803571D02*
X207606428Y-111803571D01*
X207606428Y-110946429D02*
X207535000Y-110875000D01*
X207392142Y-110803571D01*
X207177857Y-110803571D01*
X207035000Y-110875000D01*
X206963571Y-111017857D01*
X206963571Y-111803571D01*
X205106428Y-111803571D02*
X205106428Y-110303571D01*
X205106428Y-111017857D02*
X204249285Y-111017857D01*
X204249285Y-111803571D02*
X204249285Y-110303571D01*
X202892142Y-111803571D02*
X202892142Y-111017857D01*
X202963571Y-110875000D01*
X203106428Y-110803571D01*
X203392142Y-110803571D01*
X203534999Y-110875000D01*
X202892142Y-111732143D02*
X203034999Y-111803571D01*
X203392142Y-111803571D01*
X203534999Y-111732143D01*
X203606428Y-111589286D01*
X203606428Y-111446429D01*
X203534999Y-111303571D01*
X203392142Y-111232143D01*
X203034999Y-111232143D01*
X202892142Y-111160714D01*
X202177856Y-111803571D02*
X202177856Y-110803571D01*
X202177856Y-111089286D02*
X202106428Y-110946429D01*
X202034999Y-110875000D01*
X201892142Y-110803571D01*
X201749285Y-110803571D01*
X200606428Y-111803571D02*
X200606428Y-110303571D01*
X200606428Y-111732143D02*
X200749285Y-111803571D01*
X201034999Y-111803571D01*
X201177857Y-111732143D01*
X201249285Y-111660714D01*
X201320714Y-111517857D01*
X201320714Y-111089286D01*
X201249285Y-110946429D01*
X201177857Y-110875000D01*
X201034999Y-110803571D01*
X200749285Y-110803571D01*
X200606428Y-110875000D01*
X200034999Y-110803571D02*
X199749285Y-111803571D01*
X199463571Y-111089286D01*
X199177856Y-111803571D01*
X198892142Y-110803571D01*
X197677856Y-111803571D02*
X197677856Y-111017857D01*
X197749285Y-110875000D01*
X197892142Y-110803571D01*
X198177856Y-110803571D01*
X198320713Y-110875000D01*
X197677856Y-111732143D02*
X197820713Y-111803571D01*
X198177856Y-111803571D01*
X198320713Y-111732143D01*
X198392142Y-111589286D01*
X198392142Y-111446429D01*
X198320713Y-111303571D01*
X198177856Y-111232143D01*
X197820713Y-111232143D01*
X197677856Y-111160714D01*
X196963570Y-111803571D02*
X196963570Y-110803571D01*
X196963570Y-111089286D02*
X196892142Y-110946429D01*
X196820713Y-110875000D01*
X196677856Y-110803571D01*
X196534999Y-110803571D01*
X195463571Y-111732143D02*
X195606428Y-111803571D01*
X195892142Y-111803571D01*
X196034999Y-111732143D01*
X196106428Y-111589286D01*
X196106428Y-111017857D01*
X196034999Y-110875000D01*
X195892142Y-110803571D01*
X195606428Y-110803571D01*
X195463571Y-110875000D01*
X195392142Y-111017857D01*
X195392142Y-111160714D01*
X196106428Y-111303571D01*
X194677857Y-111732143D02*
X194677857Y-111803571D01*
X194749285Y-111946429D01*
X194820714Y-112017857D01*
X192677856Y-111803571D02*
X192820714Y-111732143D01*
X192892142Y-111589286D01*
X192892142Y-110303571D01*
X192106428Y-111803571D02*
X192106428Y-110803571D01*
X192106428Y-110303571D02*
X192177857Y-110375000D01*
X192106428Y-110446429D01*
X192035000Y-110375000D01*
X192106428Y-110303571D01*
X192106428Y-110446429D01*
X190749285Y-111732143D02*
X190892142Y-111803571D01*
X191177856Y-111803571D01*
X191320714Y-111732143D01*
X191392142Y-111660714D01*
X191463571Y-111517857D01*
X191463571Y-111089286D01*
X191392142Y-110946429D01*
X191320714Y-110875000D01*
X191177856Y-110803571D01*
X190892142Y-110803571D01*
X190749285Y-110875000D01*
X189535000Y-111732143D02*
X189677857Y-111803571D01*
X189963571Y-111803571D01*
X190106428Y-111732143D01*
X190177857Y-111589286D01*
X190177857Y-111017857D01*
X190106428Y-110875000D01*
X189963571Y-110803571D01*
X189677857Y-110803571D01*
X189535000Y-110875000D01*
X189463571Y-111017857D01*
X189463571Y-111160714D01*
X190177857Y-111303571D01*
X188820714Y-110803571D02*
X188820714Y-111803571D01*
X188820714Y-110946429D02*
X188749286Y-110875000D01*
X188606428Y-110803571D01*
X188392143Y-110803571D01*
X188249286Y-110875000D01*
X188177857Y-111017857D01*
X188177857Y-111803571D01*
X187535000Y-111732143D02*
X187392143Y-111803571D01*
X187106428Y-111803571D01*
X186963571Y-111732143D01*
X186892143Y-111589286D01*
X186892143Y-111517857D01*
X186963571Y-111375000D01*
X187106428Y-111303571D01*
X187320714Y-111303571D01*
X187463571Y-111232143D01*
X187535000Y-111089286D01*
X187535000Y-111017857D01*
X187463571Y-110875000D01*
X187320714Y-110803571D01*
X187106428Y-110803571D01*
X186963571Y-110875000D01*
X185677857Y-111732143D02*
X185820714Y-111803571D01*
X186106428Y-111803571D01*
X186249285Y-111732143D01*
X186320714Y-111589286D01*
X186320714Y-111017857D01*
X186249285Y-110875000D01*
X186106428Y-110803571D01*
X185820714Y-110803571D01*
X185677857Y-110875000D01*
X185606428Y-111017857D01*
X185606428Y-111160714D01*
X186320714Y-111303571D01*
X184320714Y-111803571D02*
X184320714Y-110303571D01*
X184320714Y-111732143D02*
X184463571Y-111803571D01*
X184749285Y-111803571D01*
X184892143Y-111732143D01*
X184963571Y-111660714D01*
X185035000Y-111517857D01*
X185035000Y-111089286D01*
X184963571Y-110946429D01*
X184892143Y-110875000D01*
X184749285Y-110803571D01*
X184463571Y-110803571D01*
X184320714Y-110875000D01*
X181820714Y-110803571D02*
X181820714Y-111803571D01*
X182463571Y-110803571D02*
X182463571Y-111589286D01*
X182392143Y-111732143D01*
X182249285Y-111803571D01*
X182035000Y-111803571D01*
X181892143Y-111732143D01*
X181820714Y-111660714D01*
X181106428Y-110803571D02*
X181106428Y-111803571D01*
X181106428Y-110946429D02*
X181035000Y-110875000D01*
X180892142Y-110803571D01*
X180677857Y-110803571D01*
X180535000Y-110875000D01*
X180463571Y-111017857D01*
X180463571Y-111803571D01*
X179106428Y-111803571D02*
X179106428Y-110303571D01*
X179106428Y-111732143D02*
X179249285Y-111803571D01*
X179534999Y-111803571D01*
X179677857Y-111732143D01*
X179749285Y-111660714D01*
X179820714Y-111517857D01*
X179820714Y-111089286D01*
X179749285Y-110946429D01*
X179677857Y-110875000D01*
X179534999Y-110803571D01*
X179249285Y-110803571D01*
X179106428Y-110875000D01*
X177820714Y-111732143D02*
X177963571Y-111803571D01*
X178249285Y-111803571D01*
X178392142Y-111732143D01*
X178463571Y-111589286D01*
X178463571Y-111017857D01*
X178392142Y-110875000D01*
X178249285Y-110803571D01*
X177963571Y-110803571D01*
X177820714Y-110875000D01*
X177749285Y-111017857D01*
X177749285Y-111160714D01*
X178463571Y-111303571D01*
X177106428Y-111803571D02*
X177106428Y-110803571D01*
X177106428Y-111089286D02*
X177035000Y-110946429D01*
X176963571Y-110875000D01*
X176820714Y-110803571D01*
X176677857Y-110803571D01*
X174177857Y-111660714D02*
X174249286Y-111732143D01*
X174463572Y-111803571D01*
X174606429Y-111803571D01*
X174820714Y-111732143D01*
X174963572Y-111589286D01*
X175035000Y-111446429D01*
X175106429Y-111160714D01*
X175106429Y-110946429D01*
X175035000Y-110660714D01*
X174963572Y-110517857D01*
X174820714Y-110375000D01*
X174606429Y-110303571D01*
X174463572Y-110303571D01*
X174249286Y-110375000D01*
X174177857Y-110446429D01*
X173535000Y-111017857D02*
X173035000Y-111017857D01*
X172820714Y-111803571D02*
X173535000Y-111803571D01*
X173535000Y-110303571D01*
X172820714Y-110303571D01*
X171320714Y-111803571D02*
X171820714Y-111089286D01*
X172177857Y-111803571D02*
X172177857Y-110303571D01*
X171606429Y-110303571D01*
X171463571Y-110375000D01*
X171392143Y-110446429D01*
X171320714Y-110589286D01*
X171320714Y-110803571D01*
X171392143Y-110946429D01*
X171463571Y-111017857D01*
X171606429Y-111089286D01*
X172177857Y-111089286D01*
X170677857Y-111803571D02*
X170677857Y-110303571D01*
X169820714Y-111803571D01*
X169820714Y-110303571D01*
X167677857Y-110303571D02*
X167392143Y-110303571D01*
X167249285Y-110375000D01*
X167106428Y-110517857D01*
X167035000Y-110803571D01*
X167035000Y-111303571D01*
X167106428Y-111589286D01*
X167249285Y-111732143D01*
X167392143Y-111803571D01*
X167677857Y-111803571D01*
X167820714Y-111732143D01*
X167963571Y-111589286D01*
X168035000Y-111303571D01*
X168035000Y-110803571D01*
X167963571Y-110517857D01*
X167820714Y-110375000D01*
X167677857Y-110303571D01*
X166392142Y-111803571D02*
X166392142Y-110303571D01*
X166392142Y-111017857D02*
X165534999Y-111017857D01*
X165534999Y-111803571D02*
X165534999Y-110303571D01*
X164106427Y-111803571D02*
X164820713Y-111803571D01*
X164820713Y-110303571D01*
X162606427Y-110803571D02*
X162249284Y-111803571D01*
X161892142Y-110803571D01*
X160534999Y-111803571D02*
X161392142Y-111803571D01*
X160963570Y-111803571D02*
X160963570Y-110303571D01*
X161106427Y-110517857D01*
X161249285Y-110660714D01*
X161392142Y-110732143D01*
X159892142Y-111660714D02*
X159820714Y-111732143D01*
X159892142Y-111803571D01*
X159963571Y-111732143D01*
X159892142Y-111660714D01*
X159892142Y-111803571D01*
X159249285Y-110446429D02*
X159177856Y-110375000D01*
X159034999Y-110303571D01*
X158677856Y-110303571D01*
X158534999Y-110375000D01*
X158463570Y-110446429D01*
X158392142Y-110589286D01*
X158392142Y-110732143D01*
X158463570Y-110946429D01*
X159320713Y-111803571D01*
X158392142Y-111803571D01*
X157749285Y-111660714D02*
X157677857Y-111732143D01*
X157749285Y-111803571D01*
X157820714Y-111732143D01*
X157749285Y-111660714D01*
X157749285Y-111803571D01*
X211231428Y-80545714D02*
X211302857Y-80617143D01*
X211517143Y-80688571D01*
X211660000Y-80688571D01*
X211874285Y-80617143D01*
X212017143Y-80474286D01*
X212088571Y-80331429D01*
X212160000Y-80045714D01*
X212160000Y-79831429D01*
X212088571Y-79545714D01*
X212017143Y-79402857D01*
X211874285Y-79260000D01*
X211660000Y-79188571D01*
X211517143Y-79188571D01*
X211302857Y-79260000D01*
X211231428Y-79331429D01*
X210588571Y-80688571D02*
X210588571Y-79688571D01*
X210588571Y-79974286D02*
X210517143Y-79831429D01*
X210445714Y-79760000D01*
X210302857Y-79688571D01*
X210160000Y-79688571D01*
X209445714Y-80688571D02*
X209588572Y-80617143D01*
X209660000Y-80545714D01*
X209731429Y-80402857D01*
X209731429Y-79974286D01*
X209660000Y-79831429D01*
X209588572Y-79760000D01*
X209445714Y-79688571D01*
X209231429Y-79688571D01*
X209088572Y-79760000D01*
X209017143Y-79831429D01*
X208945714Y-79974286D01*
X208945714Y-80402857D01*
X209017143Y-80545714D01*
X209088572Y-80617143D01*
X209231429Y-80688571D01*
X209445714Y-80688571D01*
X208374286Y-80617143D02*
X208231429Y-80688571D01*
X207945714Y-80688571D01*
X207802857Y-80617143D01*
X207731429Y-80474286D01*
X207731429Y-80402857D01*
X207802857Y-80260000D01*
X207945714Y-80188571D01*
X208160000Y-80188571D01*
X208302857Y-80117143D01*
X208374286Y-79974286D01*
X208374286Y-79902857D01*
X208302857Y-79760000D01*
X208160000Y-79688571D01*
X207945714Y-79688571D01*
X207802857Y-79760000D01*
X207160000Y-80617143D02*
X207017143Y-80688571D01*
X206731428Y-80688571D01*
X206588571Y-80617143D01*
X206517143Y-80474286D01*
X206517143Y-80402857D01*
X206588571Y-80260000D01*
X206731428Y-80188571D01*
X206945714Y-80188571D01*
X207088571Y-80117143D01*
X207160000Y-79974286D01*
X207160000Y-79902857D01*
X207088571Y-79760000D01*
X206945714Y-79688571D01*
X206731428Y-79688571D01*
X206588571Y-79760000D01*
X205945714Y-80617143D02*
X205731428Y-80688571D01*
X205374285Y-80688571D01*
X205231428Y-80617143D01*
X205159999Y-80545714D01*
X205088571Y-80402857D01*
X205088571Y-80260000D01*
X205159999Y-80117143D01*
X205231428Y-80045714D01*
X205374285Y-79974286D01*
X205659999Y-79902857D01*
X205802857Y-79831429D01*
X205874285Y-79760000D01*
X205945714Y-79617143D01*
X205945714Y-79474286D01*
X205874285Y-79331429D01*
X205802857Y-79260000D01*
X205659999Y-79188571D01*
X205302857Y-79188571D01*
X205088571Y-79260000D01*
X204660000Y-79688571D02*
X204088571Y-79688571D01*
X204445714Y-79188571D02*
X204445714Y-80474286D01*
X204374286Y-80617143D01*
X204231428Y-80688571D01*
X204088571Y-80688571D01*
X203374285Y-80688571D02*
X203517143Y-80617143D01*
X203588571Y-80545714D01*
X203660000Y-80402857D01*
X203660000Y-79974286D01*
X203588571Y-79831429D01*
X203517143Y-79760000D01*
X203374285Y-79688571D01*
X203160000Y-79688571D01*
X203017143Y-79760000D01*
X202945714Y-79831429D01*
X202874285Y-79974286D01*
X202874285Y-80402857D01*
X202945714Y-80545714D01*
X203017143Y-80617143D01*
X203160000Y-80688571D01*
X203374285Y-80688571D01*
X202231428Y-80688571D02*
X202231428Y-79688571D01*
X202231428Y-79831429D02*
X202160000Y-79760000D01*
X202017142Y-79688571D01*
X201802857Y-79688571D01*
X201660000Y-79760000D01*
X201588571Y-79902857D01*
X201588571Y-80688571D01*
X201588571Y-79902857D02*
X201517142Y-79760000D01*
X201374285Y-79688571D01*
X201160000Y-79688571D01*
X201017142Y-79760000D01*
X200945714Y-79902857D01*
X200945714Y-80688571D01*
X200231428Y-79688571D02*
X200231428Y-81188571D01*
X200231428Y-79760000D02*
X200088571Y-79688571D01*
X199802857Y-79688571D01*
X199660000Y-79760000D01*
X199588571Y-79831429D01*
X199517142Y-79974286D01*
X199517142Y-80402857D01*
X199588571Y-80545714D01*
X199660000Y-80617143D01*
X199802857Y-80688571D01*
X200088571Y-80688571D01*
X200231428Y-80617143D01*
X198874285Y-80117143D02*
X197731428Y-80117143D01*
X197231428Y-79688571D02*
X196659999Y-79688571D01*
X197017142Y-79188571D02*
X197017142Y-80474286D01*
X196945714Y-80617143D01*
X196802856Y-80688571D01*
X196659999Y-80688571D01*
X196374285Y-79688571D02*
X195802856Y-79688571D01*
X196159999Y-79188571D02*
X196159999Y-80474286D01*
X196088571Y-80617143D01*
X195945713Y-80688571D01*
X195802856Y-80688571D01*
X195302856Y-80688571D02*
X195302856Y-79188571D01*
X194659999Y-80688571D02*
X194659999Y-79902857D01*
X194731428Y-79760000D01*
X194874285Y-79688571D01*
X195088570Y-79688571D01*
X195231428Y-79760000D01*
X195302856Y-79831429D01*
X193945713Y-80117143D02*
X192802856Y-80117143D01*
X191302856Y-80688571D02*
X192159999Y-80688571D01*
X191731427Y-80688571D02*
X191731427Y-79188571D01*
X191874284Y-79402857D01*
X192017142Y-79545714D01*
X192159999Y-79617143D01*
X190659999Y-80545714D02*
X190588571Y-80617143D01*
X190659999Y-80688571D01*
X190731428Y-80617143D01*
X190659999Y-80545714D01*
X190659999Y-80688571D01*
X189659999Y-79188571D02*
X189517142Y-79188571D01*
X189374285Y-79260000D01*
X189302856Y-79331429D01*
X189231427Y-79474286D01*
X189159999Y-79760000D01*
X189159999Y-80117143D01*
X189231427Y-80402857D01*
X189302856Y-80545714D01*
X189374285Y-80617143D01*
X189517142Y-80688571D01*
X189659999Y-80688571D01*
X189802856Y-80617143D01*
X189874285Y-80545714D01*
X189945713Y-80402857D01*
X190017142Y-80117143D01*
X190017142Y-79760000D01*
X189945713Y-79474286D01*
X189874285Y-79331429D01*
X189802856Y-79260000D01*
X189659999Y-79188571D01*
X175512144Y-80688571D02*
X175512144Y-79188571D01*
X175512144Y-80617143D02*
X175655001Y-80688571D01*
X175940715Y-80688571D01*
X176083573Y-80617143D01*
X176155001Y-80545714D01*
X176226430Y-80402857D01*
X176226430Y-79974286D01*
X176155001Y-79831429D01*
X176083573Y-79760000D01*
X175940715Y-79688571D01*
X175655001Y-79688571D01*
X175512144Y-79760000D01*
X174583572Y-80688571D02*
X174726430Y-80617143D01*
X174797858Y-80545714D01*
X174869287Y-80402857D01*
X174869287Y-79974286D01*
X174797858Y-79831429D01*
X174726430Y-79760000D01*
X174583572Y-79688571D01*
X174369287Y-79688571D01*
X174226430Y-79760000D01*
X174155001Y-79831429D01*
X174083572Y-79974286D01*
X174083572Y-80402857D01*
X174155001Y-80545714D01*
X174226430Y-80617143D01*
X174369287Y-80688571D01*
X174583572Y-80688571D01*
X173226429Y-80688571D02*
X173369287Y-80617143D01*
X173440715Y-80474286D01*
X173440715Y-79188571D01*
X172012144Y-79688571D02*
X172012144Y-80902857D01*
X172083573Y-81045714D01*
X172155001Y-81117143D01*
X172297858Y-81188571D01*
X172512144Y-81188571D01*
X172655001Y-81117143D01*
X172012144Y-80617143D02*
X172155001Y-80688571D01*
X172440715Y-80688571D01*
X172583573Y-80617143D01*
X172655001Y-80545714D01*
X172726430Y-80402857D01*
X172726430Y-79974286D01*
X172655001Y-79831429D01*
X172583573Y-79760000D01*
X172440715Y-79688571D01*
X172155001Y-79688571D01*
X172012144Y-79760000D01*
X170655001Y-80688571D02*
X170655001Y-79902857D01*
X170726430Y-79760000D01*
X170869287Y-79688571D01*
X171155001Y-79688571D01*
X171297858Y-79760000D01*
X170655001Y-80617143D02*
X170797858Y-80688571D01*
X171155001Y-80688571D01*
X171297858Y-80617143D01*
X171369287Y-80474286D01*
X171369287Y-80331429D01*
X171297858Y-80188571D01*
X171155001Y-80117143D01*
X170797858Y-80117143D01*
X170655001Y-80045714D01*
X169940715Y-79688571D02*
X169940715Y-80688571D01*
X169940715Y-79831429D02*
X169869287Y-79760000D01*
X169726429Y-79688571D01*
X169512144Y-79688571D01*
X169369287Y-79760000D01*
X169297858Y-79902857D01*
X169297858Y-80688571D01*
X168369286Y-80688571D02*
X168512144Y-80617143D01*
X168583572Y-80545714D01*
X168655001Y-80402857D01*
X168655001Y-79974286D01*
X168583572Y-79831429D01*
X168512144Y-79760000D01*
X168369286Y-79688571D01*
X168155001Y-79688571D01*
X168012144Y-79760000D01*
X167940715Y-79831429D01*
X167869286Y-79974286D01*
X167869286Y-80402857D01*
X167940715Y-80545714D01*
X168012144Y-80617143D01*
X168155001Y-80688571D01*
X168369286Y-80688571D01*
X167440715Y-79688571D02*
X166869286Y-79688571D01*
X167226429Y-80688571D02*
X167226429Y-79402857D01*
X167155001Y-79260000D01*
X167012143Y-79188571D01*
X166869286Y-79188571D01*
X166583572Y-79688571D02*
X166012143Y-79688571D01*
X166369286Y-80688571D02*
X166369286Y-79402857D01*
X166297858Y-79260000D01*
X166155000Y-79188571D01*
X166012143Y-79188571D01*
X165512143Y-80545714D02*
X165440715Y-80617143D01*
X165512143Y-80688571D01*
X165583572Y-80617143D01*
X165512143Y-80545714D01*
X165512143Y-80688571D01*
X164155000Y-80617143D02*
X164297857Y-80688571D01*
X164583571Y-80688571D01*
X164726429Y-80617143D01*
X164797857Y-80545714D01*
X164869286Y-80402857D01*
X164869286Y-79974286D01*
X164797857Y-79831429D01*
X164726429Y-79760000D01*
X164583571Y-79688571D01*
X164297857Y-79688571D01*
X164155000Y-79760000D01*
X163297857Y-80688571D02*
X163440715Y-80617143D01*
X163512143Y-80545714D01*
X163583572Y-80402857D01*
X163583572Y-79974286D01*
X163512143Y-79831429D01*
X163440715Y-79760000D01*
X163297857Y-79688571D01*
X163083572Y-79688571D01*
X162940715Y-79760000D01*
X162869286Y-79831429D01*
X162797857Y-79974286D01*
X162797857Y-80402857D01*
X162869286Y-80545714D01*
X162940715Y-80617143D01*
X163083572Y-80688571D01*
X163297857Y-80688571D01*
X162155000Y-80688571D02*
X162155000Y-79688571D01*
X162155000Y-79831429D02*
X162083572Y-79760000D01*
X161940714Y-79688571D01*
X161726429Y-79688571D01*
X161583572Y-79760000D01*
X161512143Y-79902857D01*
X161512143Y-80688571D01*
X161512143Y-79902857D02*
X161440714Y-79760000D01*
X161297857Y-79688571D01*
X161083572Y-79688571D01*
X160940714Y-79760000D01*
X160869286Y-79902857D01*
X160869286Y-80688571D01*
X159083572Y-79117143D02*
X160369286Y-81045714D01*
X158797857Y-79688571D02*
X158226428Y-79688571D01*
X158583571Y-80688571D02*
X158583571Y-79402857D01*
X158512143Y-79260000D01*
X158369285Y-79188571D01*
X158226428Y-79188571D01*
X157726428Y-80688571D02*
X157726428Y-79688571D01*
X157726428Y-79974286D02*
X157655000Y-79831429D01*
X157583571Y-79760000D01*
X157440714Y-79688571D01*
X157297857Y-79688571D01*
X155726429Y-79117143D02*
X157012143Y-81045714D01*
X154583571Y-80688571D02*
X154583571Y-79902857D01*
X154655000Y-79760000D01*
X154797857Y-79688571D01*
X155083571Y-79688571D01*
X155226428Y-79760000D01*
X154583571Y-80617143D02*
X154726428Y-80688571D01*
X155083571Y-80688571D01*
X155226428Y-80617143D01*
X155297857Y-80474286D01*
X155297857Y-80331429D01*
X155226428Y-80188571D01*
X155083571Y-80117143D01*
X154726428Y-80117143D01*
X154583571Y-80045714D01*
X153869285Y-80117143D02*
X152726428Y-80117143D01*
X152012142Y-79688571D02*
X152012142Y-81188571D01*
X152012142Y-79760000D02*
X151869285Y-79688571D01*
X151583571Y-79688571D01*
X151440714Y-79760000D01*
X151369285Y-79831429D01*
X151297856Y-79974286D01*
X151297856Y-80402857D01*
X151369285Y-80545714D01*
X151440714Y-80617143D01*
X151583571Y-80688571D01*
X151869285Y-80688571D01*
X152012142Y-80617143D01*
X150654999Y-80688571D02*
X150654999Y-79688571D01*
X150654999Y-79974286D02*
X150583571Y-79831429D01*
X150512142Y-79760000D01*
X150369285Y-79688571D01*
X150226428Y-79688571D01*
X149512142Y-80688571D02*
X149655000Y-80617143D01*
X149726428Y-80545714D01*
X149797857Y-80402857D01*
X149797857Y-79974286D01*
X149726428Y-79831429D01*
X149655000Y-79760000D01*
X149512142Y-79688571D01*
X149297857Y-79688571D01*
X149155000Y-79760000D01*
X149083571Y-79831429D01*
X149012142Y-79974286D01*
X149012142Y-80402857D01*
X149083571Y-80545714D01*
X149155000Y-80617143D01*
X149297857Y-80688571D01*
X149512142Y-80688571D01*
X148369285Y-79688571D02*
X148369285Y-81188571D01*
X148369285Y-79760000D02*
X148226428Y-79688571D01*
X147940714Y-79688571D01*
X147797857Y-79760000D01*
X147726428Y-79831429D01*
X147654999Y-79974286D01*
X147654999Y-80402857D01*
X147726428Y-80545714D01*
X147797857Y-80617143D01*
X147940714Y-80688571D01*
X148226428Y-80688571D01*
X148369285Y-80617143D01*
X146797856Y-80688571D02*
X146940714Y-80617143D01*
X147012142Y-80545714D01*
X147083571Y-80402857D01*
X147083571Y-79974286D01*
X147012142Y-79831429D01*
X146940714Y-79760000D01*
X146797856Y-79688571D01*
X146583571Y-79688571D01*
X146440714Y-79760000D01*
X146369285Y-79831429D01*
X146297856Y-79974286D01*
X146297856Y-80402857D01*
X146369285Y-80545714D01*
X146440714Y-80617143D01*
X146583571Y-80688571D01*
X146797856Y-80688571D01*
X145726428Y-80617143D02*
X145583571Y-80688571D01*
X145297856Y-80688571D01*
X145154999Y-80617143D01*
X145083571Y-80474286D01*
X145083571Y-80402857D01*
X145154999Y-80260000D01*
X145297856Y-80188571D01*
X145512142Y-80188571D01*
X145654999Y-80117143D01*
X145726428Y-79974286D01*
X145726428Y-79902857D01*
X145654999Y-79760000D01*
X145512142Y-79688571D01*
X145297856Y-79688571D01*
X145154999Y-79760000D01*
%LPC*%
D12*
X144145000Y-93980000D03*
X144145000Y-99060000D03*
X200025000Y-102870000D03*
D13*
X202565000Y-102870000D03*
D12*
X198120000Y-106045000D03*
D13*
X198120000Y-108585000D03*
D12*
X167640000Y-88900000D03*
X167640000Y-93980000D03*
X172720000Y-102235000D03*
X177800000Y-102235000D03*
X199390000Y-83185000D03*
D13*
X201930000Y-83185000D03*
D12*
X204470000Y-90170000D03*
D13*
X204470000Y-92710000D03*
D12*
X204470000Y-99060000D03*
D13*
X204470000Y-96520000D03*
D14*
X144145000Y-106045000D03*
D15*
X144145000Y-103505000D03*
D14*
X213360000Y-105410000D03*
D15*
X213360000Y-107950000D03*
D16*
X213360000Y-85725000D03*
X213360000Y-93345000D03*
X213360000Y-100965000D03*
D12*
X147955000Y-100330000D03*
X155575000Y-100330000D03*
X144145000Y-90805000D03*
X144145000Y-83185000D03*
X159385000Y-103505000D03*
X167005000Y-103505000D03*
X163830000Y-88900000D03*
X163830000Y-96520000D03*
X160655000Y-96520000D03*
X160655000Y-88900000D03*
X159385000Y-99695000D03*
X167005000Y-99695000D03*
X160020000Y-83185000D03*
X167640000Y-83185000D03*
X171450000Y-86995000D03*
X179070000Y-86995000D03*
X187325000Y-107950000D03*
X194945000Y-107950000D03*
X200660000Y-97790000D03*
X200660000Y-90170000D03*
X194945000Y-101600000D03*
X187325000Y-101600000D03*
X193040000Y-86995000D03*
X185420000Y-86995000D03*
X183515000Y-107950000D03*
X183515000Y-100330000D03*
X183515000Y-97790000D03*
X183515000Y-90170000D03*
X196215000Y-83185000D03*
X188595000Y-83185000D03*
X204470000Y-86995000D03*
X196850000Y-86995000D03*
X194945000Y-104775000D03*
X187325000Y-104775000D03*
D17*
X150495000Y-83185000D03*
D18*
X153035000Y-83185000D03*
X155575000Y-83185000D03*
D17*
X149225000Y-107950000D03*
D18*
X151765000Y-107950000D03*
X154305000Y-107950000D03*
D17*
X172085000Y-83185000D03*
D18*
X174625000Y-83185000D03*
X177165000Y-83185000D03*
D17*
X179705000Y-83185000D03*
D18*
X182245000Y-83185000D03*
X184785000Y-83185000D03*
D19*
X208915000Y-88265000D03*
D20*
X208915000Y-85725000D03*
X208915000Y-83185000D03*
D19*
X208915000Y-95885000D03*
D20*
X208915000Y-93345000D03*
X208915000Y-90805000D03*
D19*
X208915000Y-103505000D03*
D20*
X208915000Y-100965000D03*
X208915000Y-98425000D03*
D17*
X159385000Y-107950000D03*
D18*
X161925000Y-107950000D03*
X164465000Y-107950000D03*
D17*
X167005000Y-107950000D03*
D18*
X169545000Y-107950000D03*
X172085000Y-107950000D03*
D17*
X174625000Y-107950000D03*
D18*
X177165000Y-107950000D03*
X179705000Y-107950000D03*
D21*
X147955000Y-88265000D03*
D22*
X147955000Y-90805000D03*
X147955000Y-93345000D03*
X147955000Y-95885000D03*
X155575000Y-95885000D03*
X155575000Y-93345000D03*
X155575000Y-90805000D03*
X155575000Y-88265000D03*
D21*
X171450000Y-90170000D03*
D22*
X171450000Y-92710000D03*
X171450000Y-95250000D03*
X171450000Y-97790000D03*
X179070000Y-97790000D03*
X179070000Y-95250000D03*
X179070000Y-92710000D03*
X179070000Y-90170000D03*
D21*
X189230000Y-90170000D03*
D22*
X189230000Y-92710000D03*
X189230000Y-95250000D03*
X189230000Y-97790000D03*
X196850000Y-97790000D03*
X196850000Y-95250000D03*
X196850000Y-92710000D03*
X196850000Y-90170000D03*
D23*
X205105000Y-105410000D03*
D24*
X202565000Y-107950000D03*
X207645000Y-107950000D03*
M02*
