M48
;DRILL file {kicad (2014-09-19 BZR 5142)-product} date 11/10/2014 22:22:46
;FORMAT={-:-/ absolute / inch / decimal}
FMAT,2
INCH,TZ
T1C0.020
T2C0.032
T3C0.039
T4C0.040
%
G90
G05
M72
T1
X7.3Y-4.2
X7.325Y-3.575
X7.325Y-3.85
X8.075Y-3.2
T2
X5.675Y-3.275
X5.675Y-3.575
X5.675Y-3.7
X5.675Y-3.9
X5.825Y-3.475
X5.825Y-3.575
X5.825Y-3.675
X5.825Y-3.775
X5.825Y-3.95
X6.125Y-3.475
X6.125Y-3.575
X6.125Y-3.675
X6.125Y-3.775
X6.125Y-3.95
X6.275Y-3.925
X6.275Y-4.075
X6.3Y-3.275
X6.325Y-3.5
X6.325Y-3.8
X6.45Y-3.5
X6.45Y-3.8
X6.575Y-3.925
X6.575Y-4.075
X6.6Y-3.275
X6.6Y-3.5
X6.6Y-3.7
X6.75Y-3.425
X6.75Y-3.55
X6.75Y-3.65
X6.75Y-3.75
X6.75Y-3.85
X6.8Y-4.025
X7.Y-4.025
X7.05Y-3.425
X7.05Y-3.55
X7.05Y-3.65
X7.05Y-3.75
X7.05Y-3.85
X7.225Y-3.55
X7.225Y-3.85
X7.225Y-3.95
X7.225Y-4.25
X7.3Y-3.425
X7.375Y-4.
X7.375Y-4.125
X7.375Y-4.25
X7.425Y-3.275
X7.45Y-3.55
X7.45Y-3.65
X7.45Y-3.75
X7.45Y-3.85
X7.6Y-3.425
X7.675Y-4.
X7.675Y-4.125
X7.675Y-4.25
X7.725Y-3.275
X7.75Y-3.425
X7.75Y-3.55
X7.75Y-3.65
X7.75Y-3.75
X7.75Y-3.85
X7.8Y-4.175
X7.8Y-4.275
X7.85Y-3.275
X7.875Y-4.05
X7.9Y-3.55
X7.9Y-3.85
X7.95Y-3.275
X7.975Y-4.05
X8.05Y-3.425
X8.05Y-3.55
X8.05Y-3.65
X8.05Y-3.8
X8.05Y-3.9
T3
X7.975Y-4.25
X8.075Y-4.15
X8.175Y-4.25
T4
X5.675Y-4.075
X5.675Y-4.175
X5.875Y-4.25
X5.925Y-3.275
X5.975Y-4.25
X6.025Y-3.275
X6.075Y-4.25
X6.125Y-3.275
X6.275Y-4.25
X6.375Y-4.25
X6.475Y-4.25
X6.575Y-4.25
X6.675Y-4.25
X6.775Y-3.275
X6.775Y-4.25
X6.875Y-3.275
X6.875Y-4.25
X6.975Y-3.275
X6.975Y-4.25
X7.075Y-3.275
X7.075Y-4.25
X7.175Y-3.275
X7.275Y-3.275
X8.225Y-3.275
X8.225Y-3.375
X8.225Y-3.475
X8.225Y-3.575
X8.225Y-3.675
X8.225Y-3.775
X8.225Y-3.875
X8.225Y-3.975
X8.225Y-4.075
X8.4Y-3.375
X8.4Y-3.675
X8.4Y-3.975
X8.4Y-4.15
X8.4Y-4.25
T0
M30
